<svg width="370" height="59" viewBox="0 0 370 59" fill="none" xmlns="http://www.w3.org/2000/svg">
<g clip-path="url(#clip0_1_694)">
<path d="M193.272 4.53931C193.272 4.53931 189.717 5.94408 185.583 10.4613C181.433 14.9951 179.039 20.0633 180.822 21.4075C181.506 21.9198 183.083 22.0079 185.95 19.4573C188.189 17.4686 190.467 14.8574 192.011 11.1224C193.861 6.64921 193.272 4.5944 193.272 4.53931ZM215.9 12.6704C211.306 10.3346 207.95 7.48105 204.456 5.70169C201.122 4.00495 198.967 3.29431 196.272 3.65239C195.828 3.71298 195.161 3.92783 195.161 3.92783C195.161 3.92783 196.55 8.6269 191.028 16.5266C185.433 24.5255 180.361 24.4814 178.917 22.2669C177.406 19.9476 179.356 15.2155 182.611 11.0067C186.022 6.60514 192.017 2.95276 192.017 2.95276C192.017 2.95276 190.106 1.7959 185.411 4.43465C180.839 6.99627 172.945 13.1111 165.645 23.4237C158.345 33.7363 156.883 39.4105 155.833 43.8782C154.778 48.3459 155.739 53.1276 160.733 53.1276C165.733 53.1276 171.545 45.5749 173.183 42.9472C176.233 38.0553 178.222 30.5522 174.072 31.5879C172.028 32.0947 170.372 34.3423 169.328 36.5018C168.256 38.7219 167.822 40.8428 167.822 40.8428C167.822 40.8428 166.095 41.4543 163.772 43.1785C161.45 44.8973 159.933 46.5444 159.933 46.5444C159.933 46.5444 159.95 42.9747 162.822 37.1959C165.694 31.4171 170.961 28.7728 173.945 28.5304C176.633 28.3156 180.133 30.5797 177.167 38.9367C174.206 47.2937 165.456 57.43 156.261 57.5567C147.778 57.6724 142.228 46.9356 154.033 28.2109C167.106 7.48105 182.444 1.12932 187.422 0.424188C192.4 -0.280947 194.017 1.89506 194.017 1.89506C194.017 1.89506 198.189 -0.0110124 203.478 0.347064C209.556 0.754721 214.256 5.01859 220.456 8.01541C218.833 9.57442 217.295 11.172 215.911 12.6704M243.211 5.70169C239 8.379 233.172 10.8084 227.572 10.274C226.161 11.7284 224.639 13.4086 223.117 15.243C232.828 17.1491 241.333 11.1885 245.856 6.10383C248.683 2.93623 250.072 0.104674 250.072 0.104674C250.072 0.104674 247.378 3.04641 243.211 5.70169ZM230.283 32.8329C230.406 32.618 230.461 32.4307 230.461 32.4307C230.461 32.4307 230.35 31.6209 229.572 31.5879C228.65 31.5438 227.383 31.7201 224.078 35.3504C220.783 38.9642 218.783 42.1043 217.044 45.2499C215.15 48.6819 214.383 51.238 215.472 51.8991C215.778 52.0864 216.245 52.1084 216.617 52.0148C217.356 51.8385 218.189 51.1554 219.461 49.6955C220.056 49.0124 220.717 48.0429 221.506 46.9686C223.683 44.0159 229.183 34.7114 230.278 32.8384M195.911 36.7882C196.461 35.3559 197.167 32.5464 195.706 31.4446C194.133 30.2712 190.133 33.0202 190.111 35.8407C190.089 38.7274 192.928 40.033 193.617 40.2148C194.006 40.3194 194.139 40.3029 194.328 39.9944C194.445 39.7906 195.361 38.2261 195.917 36.7882M192.889 42.0382C192.783 42.0051 191.489 41.4157 190.139 40.2974C188.8 39.1846 188.117 37.9121 188.067 37.8129C188.011 37.7192 187.956 37.7909 187.895 37.8735C187.833 37.9561 187.595 38.1655 185.45 41.278C183.311 44.3905 180.039 50.8028 183.006 51.8991C184.906 52.5987 188.067 49.2989 189.8 47.1119C191.4 45.0791 192.9 42.4954 192.983 42.3081C193.067 42.1208 192.995 42.0768 192.889 42.0382ZM226.533 49.4586C225.728 50.7367 224.811 53.1881 227.472 51.6622C230.711 49.8057 235.328 42.8645 235.328 42.8645H237.417C237.417 42.8645 234.661 47.178 231.072 51.1168C227.789 54.7251 223.783 58.0029 220.961 57.6779C217.667 57.2978 218.7 53.0064 218.7 53.0064C218.7 53.0064 213.967 57.9864 210.717 57.6283C206.311 57.1435 207.656 51.7448 207.656 51.7448C207.656 51.7448 202.672 57.8211 199.278 57.6228C193.956 57.3198 195.295 50.8799 196.772 46.3737C197.567 43.9553 198.3 42.0547 198.3 42.0547C198.3 42.0547 197.772 42.1924 196.639 42.3577C196.045 42.4403 194.967 42.5009 194.967 42.5009C194.967 42.5009 192.75 46.3792 190.978 48.7094C189.206 51.0452 181.667 59.0716 177.233 57.463C173.133 55.9756 174.489 49.7506 176.878 44.8036C180.361 37.5925 190.161 27.2304 195.806 28.591C201.667 30.0013 195.939 40.5949 195.939 40.5949C195.939 40.5949 195.939 40.6334 196 40.661C196.117 40.705 196.422 40.7381 197.128 40.6059C198.256 40.391 199.272 39.9724 199.272 39.9724C199.272 39.9724 205.161 27.7427 211.667 19.7438C218.167 11.7449 231.15 -2.02726 236.245 1.30561C237.489 2.12643 236.922 4.94697 235.245 8.37349C234.5 8.60486 233.733 8.80869 232.945 8.97396C234.067 6.9522 234.811 5.24996 235.033 4.06004C235.8 -0.0716102 226.067 8.63791 219.111 18.014C212.156 27.3901 207.978 35.8793 207.978 35.8793C207.978 35.8793 209.378 35.0915 211.567 33.3452C213.85 31.5218 216.995 28.6627 220.4 25.17C222.695 22.8177 225.395 19.865 227.917 16.5652C228.672 16.5266 229.411 16.455 230.128 16.3393C227.311 20.0964 224.35 23.5284 221.833 26.057C219.067 28.8389 216.056 31.8303 213.445 34.0118C209.295 37.4713 206.089 39.4325 206.089 39.4325C206.089 39.4325 199.989 51.5851 203.3 52.3673C205.245 52.8301 209.089 46.9631 209.089 46.9631C209.089 46.9631 214.1 39.3774 217.122 35.9674C221.245 31.3179 224.795 28.6351 228.339 28.58C230.406 28.5415 231.622 30.7285 231.622 30.7285L232.595 29.2356H238.578C238.578 29.2356 227.406 48.0318 226.517 49.4476M243.195 5.70169C238.983 8.379 233.156 10.8084 227.556 10.274C226.145 11.7284 224.622 13.4086 223.1 15.243C232.811 17.1491 241.317 11.1885 245.839 6.10383C248.667 2.93623 250.056 0.104674 250.056 0.104674C250.056 0.104674 247.361 3.04641 243.195 5.70169ZM159.189 14.929H153.5L150.283 20.0853H155.972L159.189 14.929ZM132.25 32.7668C134.672 29.478 141.356 17.9479 141.356 17.9479C141.356 17.9479 141.244 17.1381 140.467 17.105C139.545 17.061 138.011 17.3695 134.939 21.1706C131.867 24.9662 129.5 27.9961 127.767 31.1416C125.867 34.5737 125.039 36.9976 126.128 37.6531C126.433 37.8349 126.895 37.8625 127.272 37.7688C127.983 37.5925 128.911 36.8874 130.183 35.4331C130.783 34.75 131.461 33.8355 132.25 32.7668ZM101.728 17.1767C100.156 15.9978 96.1556 18.7522 96.1334 21.5672C96.1112 24.4539 99.7501 25.2802 100.217 25.3022C100.217 25.3022 100.628 25.4124 100.789 25.0709C100.889 24.856 101.383 23.9526 101.939 22.5203C102.495 21.088 103.189 18.2784 101.728 17.1767ZM99.3501 27.1147C99.2445 27.0761 97.7334 26.6464 96.2667 25.7099C94.7945 24.7734 94.1167 23.3907 94.0667 23.2915C94.0112 23.1979 93.9501 23.2695 93.8945 23.3521C93.8334 23.4347 93.5167 23.8314 91.3778 26.9439C89.2389 30.0509 86.0667 36.4247 89.0334 37.5154C90.9334 38.215 94.1278 34.9042 95.8556 32.7172C97.4556 30.6844 99.3667 27.5609 99.4501 27.3791C99.5334 27.1918 99.4556 27.1477 99.3556 27.1147M145.844 29.0373H147.928C147.928 29.0373 137.483 44.0049 131.578 43.3218C128.283 42.9417 129.261 38.9092 129.261 38.9092C129.261 38.9092 124.622 44.2803 120.389 43.2061C116.533 42.2255 119.022 35.8738 119.022 35.8738C118.583 36.0501 110.239 45.3711 104.383 43.1345C98.2501 40.7877 101.433 32.9816 102.606 30.6348C103.595 28.6572 104.683 26.729 104.683 26.729C104.683 26.729 103.744 26.9935 103.156 27.1257C102.572 27.2579 101.683 27.4287 101.683 27.4287C101.683 27.4287 98.7834 32.1057 97.0112 34.436C95.2389 36.7717 87.7001 44.7871 83.2612 43.1895C78.8223 41.5865 79.9223 35.4331 82.4167 30.5412C86.4612 22.6084 96.0612 12.8577 101.839 14.3231C107.678 15.7994 102.844 25.1921 102.844 25.1921C102.844 25.1921 104.006 25.3408 106.789 23.4568C110.806 20.7464 116.089 13.4527 121.817 14.3065C124.506 14.7087 127.011 17.4466 123.583 22.6415C122.483 24.3106 120.645 25.8036 119.233 24.3272C118.356 23.4182 119.122 21.738 120.045 20.5922C121.345 18.967 123.139 19.1929 123.139 19.1929C123.139 19.1929 124.083 17.0389 121.678 17.083C119.728 17.1216 114.794 21.6223 112.011 26.1726C109.456 30.3484 105.589 37.4658 109.472 39.0193C113.033 40.4461 119.811 32.4693 122.95 28.2881C126.089 24.1123 133.233 14.6316 139.233 14.2515C141.3 14.1192 142.528 15.9867 142.528 15.9867L143.222 14.896H149.211C149.211 14.896 137.911 33.5986 137.028 35.0144C136.333 36.1217 135.411 38.6117 137.967 37.2179C140.522 35.8187 145.839 29.0373 145.839 29.0373M142.567 59C138.033 55.8324 132.506 54.4387 127.489 54.637C122.411 54.8353 120.133 58.5924 120.133 58.5924C117.845 54.6315 113.317 52.1966 106.328 52.2572C95.0334 52.3839 83.8167 57.5512 74.9389 57.5457C66.4167 57.5457 60.2056 52.2351 60.4167 42.8094C60.7834 26.2828 74.8723 11.3979 85.4001 4.69907C91.4501 0.837354 96.5223 -0.302983 99.8334 0.0661118C102.25 0.330538 105.156 3.1015 103.322 7.18357C100.628 13.1607 96.9056 12.6594 97.0445 9.80579C97.1223 7.9493 98.3667 6.78142 99.3056 6.1424C99.9001 5.73474 100.95 5.61905 101.5 5.60804C102.033 5.16182 102.439 1.89506 98.1056 2.96929C93.7667 4.04352 88.5501 8.26331 83.5723 13.7061C78.5945 19.1433 70.8501 29.4614 68.9334 40.2809C68.0389 45.2994 68.6334 54.4497 80.6223 54.3505C90.7834 54.2679 105.795 47.6352 119.578 47.7619C124.928 47.8115 129.583 49.2383 133.211 51.4639C136.789 53.6564 141.067 56.835 142.578 59.0055" fill="white"/>
<path d="M45.1722 34.8654H36.6778V31.5822H42.4V28.8553H36.6778V26.0457H44.9722L45.3778 23.3409H33.55L33.5444 37.5758H45.5722L45.1778 34.8709L45.1722 34.8654ZM26.25 23.3244V28.4862H18.9056V23.3244H15.7778V37.5648H18.9V31.2571H26.2444V37.5648H29.3722V23.3244H26.25ZM12.7111 23.3188H0V26.1008H4.78889L4.78333 37.5538H7.91667L7.92222 26.1063H12.7111V23.3188Z" fill="white"/>
<path d="M370 23.3574H366.55L362.795 30.0176L358.989 23.3519H355.461L361.2 32.8657V37.5923H364.334V32.8051L370.006 23.3574H370ZM349.934 23.3464V32.9979L343.05 23.3409H339.806L339.8 37.5813H342.85L342.856 27.7755L349.828 37.5868H352.978L352.984 23.3519H349.934V23.3464ZM327.289 31.7199L329.428 26.0843L331.561 31.7254H327.289V31.7199ZM333.767 37.5758H337.061L331.367 23.3354H327.517L321.806 37.5703H325.078L326.278 34.4082H332.584L333.778 37.5758H333.767ZM316.639 29.6155H312.472V26.0733H316.639C317.261 26.0733 317.75 26.2275 318.095 26.5305C318.439 26.8335 318.611 27.2687 318.611 27.8361C318.611 28.4035 318.439 28.8442 318.089 29.1472C317.745 29.4557 317.256 29.61 316.634 29.61M316.717 23.3188H309.334L309.328 37.5537H312.461V32.3534H316.711C317.8 32.3534 318.728 32.1606 319.484 31.7639C320.239 31.3673 320.811 30.8274 321.195 30.1443C321.584 29.4612 321.772 28.69 321.772 27.8306C321.772 26.9712 321.584 26.2 321.195 25.5114C320.811 24.8283 320.239 24.2884 319.484 23.9028C318.728 23.5116 317.8 23.3188 316.711 23.3188M305.161 23.3133H300.956L296.739 33.2017L292.439 23.3078H288.234L288.228 37.5427H291.256L291.261 27.3568L295.622 37.3444H297.717L302.128 27.1034V37.5482H305.156V23.3078L305.161 23.3133ZM277.15 34.9866C276.3 34.9866 275.539 34.7938 274.872 34.4027C274.2 34.0115 273.672 33.4717 273.295 32.7776C272.917 32.0834 272.728 31.3012 272.728 30.4142C272.728 29.5273 272.917 28.7396 273.3 28.0509C273.678 27.3568 274.206 26.817 274.878 26.4313C275.545 26.0457 276.306 25.8474 277.161 25.8474C278.017 25.8474 278.772 26.0457 279.445 26.4368C280.117 26.828 280.645 27.3623 281.017 28.062C281.395 28.7506 281.584 29.5383 281.584 30.4253C281.584 31.3067 281.395 32.0945 281.017 32.7886C280.639 33.4827 280.111 34.0226 279.439 34.4082C278.767 34.7993 278.006 34.9921 277.156 34.9921M277.156 37.8016C278.634 37.8016 279.95 37.4876 281.117 36.8651C282.284 36.2371 283.189 35.3667 283.85 34.2429C284.506 33.1246 284.839 31.8521 284.839 30.4253C284.839 28.9985 284.511 27.7314 283.856 26.6076C283.2 25.4893 282.289 24.6134 281.122 23.9854C279.961 23.3574 278.639 23.0434 277.161 23.0434C275.684 23.0434 274.367 23.3574 273.2 23.9799C272.034 24.6079 271.128 25.4838 270.467 26.6021C269.806 27.7259 269.478 28.993 269.478 30.4198C269.478 31.841 269.806 33.1136 270.467 34.2374C271.122 35.3612 272.034 36.2316 273.195 36.8596C274.361 37.4821 275.678 37.7961 277.15 37.7961M262.072 37.7851C263.245 37.7851 264.334 37.5978 265.356 37.2232C266.372 36.8486 267.206 36.2867 267.861 35.532L265.906 33.4166C264.867 34.4578 263.617 34.9756 262.139 34.9756C261.206 34.9756 260.367 34.7773 259.617 34.3696C258.867 33.9675 258.284 33.4221 257.861 32.728C257.445 32.0339 257.234 31.2571 257.234 30.4032C257.234 29.5438 257.445 28.7726 257.872 28.0785C258.295 27.3844 258.878 26.839 259.617 26.4368C260.356 26.0347 261.184 25.8309 262.1 25.8309C262.806 25.8309 263.461 25.9631 264.067 26.2165C264.672 26.4754 265.256 26.8831 265.811 27.4395L267.767 25.2855C267.128 24.5473 266.311 23.9854 265.306 23.6053C264.3 23.2197 263.206 23.0269 262.022 23.0269C260.495 23.0269 259.117 23.3464 257.895 23.9854C256.672 24.6244 255.711 25.5058 255.022 26.6352C254.334 27.7645 253.984 29.0205 253.984 30.4032C253.984 31.786 254.328 33.042 255.017 34.1713C255.706 35.2951 256.667 36.182 257.895 36.8211C259.122 37.4601 260.517 37.7796 262.072 37.7796" fill="white"/>
</g>
<defs>
<clipPath id="clip0_1_694">
<rect width="370" height="59" fill="white"/>
</clipPath>
</defs>
</svg>
