<svg width="145" height="36" viewBox="0 0 145 36" fill="none" xmlns="http://www.w3.org/2000/svg">
<path d="M30.3375 35.3324C30.0233 35.2462 29.7091 35.1482 29.3966 35.0384C29.0756 34.927 28.7716 34.7766 28.4895 34.5891V34.4996C28.1939 34.3273 27.9203 34.1212 27.6736 33.8847L27.6365 33.7158C27.7936 33.2969 28.0216 32.9084 28.3121 32.5672L28.5368 32.5165C28.9591 32.8864 29.4439 33.1787 29.9692 33.378C30.5182 33.5773 31.1026 33.6516 31.6837 33.5976L32.6972 33.4287C32.7276 33.927 32.7834 34.4236 32.8661 34.9151L32.8188 35.0739C32.4253 35.1618 32.0283 35.2259 31.628 35.2665C31.204 35.3121 30.7783 35.334 30.3527 35.3324M32.0418 30.1297L28.2581 29.7581C28.2615 29.1027 28.1584 28.449 27.949 27.8274L28.8881 27.7852C29.5402 27.873 30.1821 27.9541 30.8087 28.0352C31.4405 28.1162 32.0435 28.3392 32.5756 28.6889V29.3949L32.4911 30.1348L32.0418 30.1297Z" fill="#FFD400"/>
<path d="M37.5548 35.3751C36.9771 35.2873 36.396 35.2298 35.8133 35.2062V35.0373C36.0498 34.2653 36.2947 33.4731 36.5464 32.6606C36.7964 31.8532 36.9721 31.0238 37.0734 30.1843L36.0835 30.1454C35.9923 29.5356 35.8471 28.936 35.6511 28.3515H35.9248C36.4062 28.4563 36.9011 28.4968 37.3927 28.4698L37.6004 27.2249L39.1207 27.1843V27.4326L38.9146 28.4326L40.3352 28.4428L40.4129 29.5323L41.2575 29.6117L41.2963 30.0694L41.0801 30.1877H38.597C38.3724 31.0508 38.1781 31.9157 38.0143 32.7822C37.8454 33.6471 37.6899 34.5119 37.5548 35.3785M40.3386 35.4173C39.7338 35.2822 39.168 35.0119 38.6832 34.6251L38.597 34.419L38.994 33.3667L39.1139 33.338C39.6224 33.5508 40.1528 33.7045 40.6967 33.794H42.6004L42.847 35.2096C42.472 35.3227 42.0818 35.3852 41.6899 35.3971C41.2929 35.4123 40.8453 35.4173 40.3386 35.4173ZM42.4939 32.2924V32.2012H39.4281L39.2761 32.1505L39.2372 31.8245L39.3504 30.9934L40.195 30.8245H42.4618L42.5767 30.8752V31.1522L42.4939 32.2924ZM40.8183 29.338L40.6781 29.2586L40.6308 28.436L40.6494 28.338L40.423 27.5627L41.3267 27.4816L41.4855 27.5323C41.5328 27.8009 41.5598 28.0728 41.5683 28.3448C41.5784 28.6235 41.5902 28.8988 41.6105 29.1775L41.5041 29.3161L40.8183 29.338ZM41.9112 29.3684L41.8723 29.289C41.9483 29.0559 41.9771 28.811 41.9568 28.5661L41.8267 27.4056H41.9838L42.3892 27.436L42.5581 27.4056L42.8858 27.5357L42.9162 27.5847V28.8431L42.8014 29.2384C42.521 29.36 42.2135 29.4056 41.9095 29.3684" fill="#FFD400"/>
<path d="M50.9323 35.4245L49.5809 34.5935V34.504L50.1451 34.0986C50.4829 33.6678 50.8022 33.2236 51.1012 32.7658C51.3867 32.3655 51.537 31.8857 51.5285 31.3942C51.4728 31.1746 51.3512 30.977 51.1806 30.8283C50.8917 30.6476 50.5522 30.5631 50.211 30.5901C49.8309 30.6611 49.4593 30.7692 49.1012 30.9128C48.7279 31.0665 48.3833 31.2793 48.0759 31.5412L47.7938 31.8587L47.6671 34.7404L47.7228 35.0884L47.7127 35.3063H46.6992C46.6046 35.3063 46.608 35.1256 46.635 34.982L46.5945 33.7117L46.635 33.3384H46.5573L46.1908 33.9584H46.0776C45.6671 33.7759 45.309 33.4938 45.0337 33.1391V32.9702C45.3276 32.5006 45.6333 32.0462 45.9509 31.6087C46.2668 31.1712 46.5066 30.6847 46.6604 30.1679H46.5945L45.7499 30.4229C45.5202 30.0243 45.3766 29.5834 45.3259 29.1273L46.662 28.7794L46.7009 27.0159H46.7955C47.1401 27.2828 47.5286 27.4905 47.9424 27.6307L47.9627 28.075L47.9424 28.303H48.1603L48.3107 28.2625L48.9711 28.9871V29.1273L48.4999 29.9584H48.5725C48.9171 29.7473 49.2836 29.5783 49.6671 29.4516C50.0759 29.3165 50.5049 29.2506 50.9356 29.254C51.4593 29.3723 51.939 29.6375 52.3191 30.0158C52.5606 30.2726 52.7211 30.5969 52.7768 30.9466C52.8292 31.308 52.8427 31.6729 52.8191 32.0361C52.6958 32.629 52.4897 33.1999 52.2059 33.7354C51.9137 34.2894 51.5708 34.8164 51.1806 35.3063L50.9323 35.4245Z" fill="#FFD400"/>
<path d="M55.6068 32.6504C55.3264 31.9478 55.1659 31.2028 55.1321 30.4461C55.0764 29.6015 55.0527 28.8127 55.0527 28.0812L55.1355 27.6167H55.3348L56.877 28.0137V28.2789C56.796 28.6235 56.7166 29.0356 56.6372 29.5137C56.5612 29.9309 56.5409 30.3549 56.5747 30.7772C56.5257 31.49 56.6912 31.7501 56.9429 32.1944C56.551 32.4748 56.0882 32.6369 55.6068 32.6589M58.1084 35.6318C57.5764 35.4477 57.046 35.2737 56.5189 35.1149V35.0457C56.8551 34.8261 57.1574 34.5575 57.4159 34.2484C57.6709 33.946 57.8939 33.6183 58.0814 33.2721C58.3787 32.6859 58.6051 32.0677 58.7571 31.4275C58.9125 30.7501 58.9564 30.0525 58.8888 29.3599C58.8398 28.9968 58.8027 28.6201 58.7858 28.2316C58.7706 27.8617 58.7064 27.4951 58.5983 27.1404H58.7942L60.5932 27.4579V27.6471C60.5375 29.0475 60.4142 30.441 60.225 31.8261C60.0392 33.2096 59.453 34.5085 58.5358 35.5609C58.4074 35.6335 58.2571 35.6589 58.1118 35.6318" fill="#FFD400"/>
<path d="M63.6939 35.1212L63.5486 35.0047L63.5283 33.9608C63.5165 32.9743 63.5165 31.9996 63.5283 31.0351C63.5419 30.0689 63.5283 29.0537 63.5098 28.1179H63.8831C64.0621 28.1821 64.2479 28.2243 64.4371 28.2446C64.6263 28.2666 64.8121 28.3139 64.9895 28.3831L65.0486 28.6399C64.9658 29.3426 64.8915 30.047 64.8256 30.7513C64.7597 31.4557 64.7344 32.3459 64.7496 33.4202L65.177 33.1195C65.8814 32.8375 66.5486 32.4692 67.1617 32.0233C67.9607 31.4777 68.4894 30.9895 68.7563 30.5672L68.9523 30.2294L69.0671 30.0182C69.1651 30.1534 69.2985 30.3662 69.4776 30.6618C69.6533 30.9591 69.8121 31.2682 69.9539 31.5841C69.6871 31.7648 69.4404 31.9743 69.2192 32.2091C68.981 32.4574 68.5029 32.731 67.8982 33.2108C67.2665 33.731 66.5638 34.1567 65.8104 34.4776C64.9016 34.8526 64.1939 35.0672 63.6871 35.1263" fill="#FFD400"/>
<path d="M75.4611 35.4847C75.147 35.4594 74.8362 35.3935 74.5389 35.2871C74.2382 35.1739 73.9662 34.9966 73.7382 34.7702C73.4392 34.3986 73.2686 33.9391 73.25 33.4628C73.223 32.9662 73.1977 32.4679 73.1723 31.9662H72.9021L71.8565 32.076L71.5457 30.5895L73.2112 30.5203V29.5389L72.3193 29.4595L72.0845 28.0541L73.0524 28.0237L75.0287 28.0929H76.4392L76.7111 28.3615C76.8378 28.522 76.8969 28.723 76.88 28.9257L76.6909 29.4983L76.576 29.5389H74.5845L74.5389 30.5895H74.8767L76.2618 30.6098H77.6131L77.7736 30.7095C77.9459 30.9814 78.0304 31.3007 78.0169 31.6216C78.0017 31.7635 77.9071 31.8851 77.7736 31.9358H74.4443V32.63C74.4561 32.9831 74.5743 33.326 74.7821 33.6114C75.1081 33.7973 75.4797 33.8935 75.8547 33.8885H77.2753L77.4442 33.9662C77.6165 34.3141 77.6959 34.701 77.6756 35.0878L77.6013 35.2753C77.2584 35.3648 76.9071 35.4222 76.5524 35.4442C76.1807 35.4712 75.8125 35.4864 75.4561 35.4864" fill="#FFD400"/>
<path d="M86.7363 28.7876C86.7937 28.8433 86.8596 28.8923 86.9306 28.9312C87.0032 28.97 87.0691 29.0173 87.1282 29.0748C87.1839 29.1575 87.2076 29.2589 87.1941 29.3585C87.1822 29.4599 87.1603 29.5579 87.1265 29.6541C87.0927 29.7504 87.0555 29.8467 87.0184 29.9413C86.9812 30.0359 86.9424 30.1322 86.9018 30.2234C86.7718 30.5528 86.6248 30.8737 86.4576 31.1862C86.2954 31.5291 86.0995 31.8568 85.8748 32.1626C85.5133 32.5798 85.1181 32.9649 84.6924 33.3146C84.2532 33.6811 83.7971 34.024 83.3225 34.3416C82.8968 34.6203 82.4137 34.8331 81.9712 35.0781C81.8816 35.1372 81.7921 35.1946 81.6975 35.247C81.608 35.3044 81.5049 35.3331 81.3985 35.3331C81.2887 35.2909 81.1908 35.2183 81.1181 35.1254C81.0404 35.0308 80.9712 34.9311 80.9104 34.8264C80.8495 34.72 80.7921 34.6119 80.7414 34.5004C80.6908 34.3889 80.635 34.2791 80.5725 34.1727C80.5421 34.1068 80.5117 34.046 80.483 33.9885C80.4492 33.9379 80.461 33.8686 80.5117 33.8331C80.6046 33.7825 80.7077 33.7504 80.8124 33.7419C80.9171 33.7166 81.0134 33.6913 81.0995 33.6642C81.0995 33.6642 81.3411 33.6034 81.4087 33.5747C81.4762 33.546 81.5387 33.5139 81.6012 33.4801L81.7938 33.3771C81.8597 33.3399 82.0404 33.3011 82.0962 33.2622C82.3597 33.0933 82.559 32.9734 82.8326 32.8146C83.0319 32.7065 83.2228 32.5848 83.4036 32.448C83.5877 32.3095 83.8275 32.2251 83.9779 32.0494C84.1282 31.8737 84.2955 31.6085 84.4306 31.4295C84.6502 31.1339 84.8292 30.8112 84.9644 30.47C85.1029 30.1237 85.216 29.769 85.3022 29.4058C85.3833 29.1558 85.461 28.8991 85.5353 28.6474C85.6046 28.394 85.64 28.1339 85.6417 27.8721C85.8681 28.1288 86.0809 28.1609 86.3326 28.3957C86.4762 28.5173 86.6096 28.6508 86.7295 28.7944" fill="#FFD400"/>
<path d="M81.1418 29.8866C81.0691 29.8968 80.9999 29.9069 80.9357 29.9187C80.8715 29.9306 80.8022 29.9373 80.7364 29.9458C80.6671 29.9508 80.5996 29.9356 80.5387 29.9035C80.5066 29.8529 80.483 29.7954 80.4729 29.7346C80.4577 29.6738 80.4475 29.6113 80.4425 29.5488C80.4425 29.488 80.4289 29.4272 80.4222 29.3647C80.4137 29.3005 80.4019 29.238 80.3867 29.1755C80.3175 28.934 80.2347 28.6958 80.1367 28.4627C80.2094 28.4002 80.5455 28.3596 80.7718 28.3596C80.9982 28.3596 81.2296 28.3512 81.4475 28.3343C81.6654 28.3174 81.9323 28.3073 82.1688 28.2954C82.2634 28.2836 82.3597 28.2684 82.4576 28.2515C82.5505 28.2313 82.6451 28.2313 82.738 28.2515C82.7938 28.309 82.8377 28.3782 82.8664 28.4542L82.9424 28.6721C82.9678 28.7481 82.983 28.8275 82.988 28.9086C83.0066 29.0218 83.0269 29.1383 83.0472 29.2583C83.0674 29.3748 83.0674 29.4931 83.0472 29.6096C82.9897 29.7025 82.8985 29.7684 82.7938 29.7971C82.6891 29.8275 82.5809 29.8427 82.4712 29.8427L82.1451 29.8562H81.8242C81.5945 29.8326 81.3614 29.8427 81.1333 29.8833" fill="#FFD400"/>
<path d="M91.3138 35.8207C90.8915 35.4238 90.5098 34.9846 90.1736 34.5133V34.3849C90.5114 34.2126 90.8425 34.0218 91.1685 33.814C91.5081 33.5995 91.8273 33.3562 92.1229 33.086C92.4438 32.7481 92.6972 32.3545 92.8712 31.9221C93.0384 31.4965 93.1702 31.0573 93.2614 30.6096H91.8408L91.5587 30.6485L91.4844 31.7684C91.177 31.8681 90.856 31.9171 90.5334 31.9171L90.2412 31.8461V31.6992L90.2783 30.8681L90.2412 30.689H89.8831L88.8949 30.8377L88.8206 30.7954V29.1249L88.7817 28.9644H88.9236L90.106 29.1249L90.2192 29.0742V28.2904L90.1432 27.3191L90.8864 27.2397L91.9101 27.3884L91.8459 27.4695C91.6736 27.9627 91.5874 28.483 91.5925 29.0049H93.2952L93.5486 28.9644L93.6533 27.3191L93.7952 27.2803L95.2614 27.4289V27.6283C95.1043 28.059 95.0046 28.5083 94.9641 28.9644C95.3509 28.907 95.7462 28.9627 96.1026 29.1249C96.1718 29.5032 96.1938 29.8884 96.1685 30.2718L96.1026 30.5319L95.3492 30.5708H94.6431C94.5519 31.1198 94.3965 31.6569 94.1837 32.1704C93.9742 32.6789 93.7259 33.1704 93.4438 33.6434L93.2665 33.9103L92.3053 35.0809C92.0452 35.4069 91.7057 35.6636 91.3189 35.8224" fill="#FFD400"/>
<path d="M100.943 35.839C100.692 35.6279 100.465 35.388 100.268 35.1262C100.067 34.8644 99.8911 34.5856 99.7391 34.2934V34.1836C100.249 34.0231 100.744 33.8171 101.217 33.5654C101.724 33.2867 102.166 32.9015 102.513 32.4387C102.759 31.9607 102.955 31.4573 103.097 30.9387C103.239 30.4472 103.312 29.9387 103.315 29.4269L102.592 29.3965H99.6546L99.6259 29.7023L99.6546 30.9793L99.5516 31.0874L98.6006 31.1769L98.4114 31.0874C98.3945 30.6245 98.3692 30.1195 98.3472 29.5671C98.3252 29.0148 98.3083 28.5266 98.3083 28.1043L100.756 28.084L102.263 28.1448L104.965 28.0046V28.6989C104.83 29.7664 104.604 30.8188 104.29 31.8475C103.994 32.883 103.448 33.8289 102.702 34.6025C102.406 34.8339 102.119 35.0654 101.837 35.2968C101.565 35.5197 101.264 35.7039 100.942 35.8424" fill="#FFD400"/>
<path d="M107.399 31.7689L107.166 30.2825H107.255L107.52 30.3331L109.132 30.4413H113.081L113.243 30.551L113.225 31.551L113.177 31.6895L113.214 31.7892H110.297L107.606 31.7588L107.399 31.7689Z" fill="#FFD400"/>
<path d="M141.532 2.08659C141.532 2.38219 141.549 2.6778 141.588 2.97002H141.102C141.139 2.6778 141.157 2.38219 141.156 2.08659V1.66767C141.156 1.47849 141.156 1.29944 141.139 1.12714H140.632L140.662 0.789307H142.022L142.053 1.12714H141.546C141.534 1.29606 141.527 1.47849 141.527 1.66767L141.532 2.08659Z" fill="#22244A"/>
<path d="M143.739 2.96968C143.775 2.67576 143.79 2.38185 143.785 2.08624L143.781 1.27882L143.594 1.82105C143.506 2.08287 143.411 2.34131 143.339 2.59975H143.091C143.016 2.34131 142.922 2.08287 142.834 1.82105L142.64 1.27882V2.08624C142.633 2.38185 142.65 2.67745 142.685 2.96968H142.232C142.28 2.67745 142.303 2.38185 142.305 2.08624V1.66733C142.312 1.37173 142.297 1.07612 142.261 0.782207H142.878C142.932 1.04234 143.001 1.2974 143.084 1.54909L143.216 1.97814L143.351 1.54909C143.432 1.2974 143.501 1.04065 143.557 0.780518H144.19C144.158 1.07443 144.145 1.37004 144.151 1.66564V2.08456C144.151 2.38016 144.177 2.67576 144.221 2.96799H143.739V2.96968Z" fill="#22244A"/>
<path d="M11.5532 18.5832L11.2559 22.2149H0.539795C0.957019 19.4159 1.13438 15.7859 1.13438 11.5883V11.411C1.13438 7.2134 0.957019 3.57662 0.539795 0.784424H5.77622C5.35899 3.57662 5.17994 7.18299 5.17994 11.3468C5.17994 13.9954 5.23906 16.4379 5.41811 18.5798L11.5532 18.5832Z" fill="#22244A"/>
<path d="M25.1842 18.5832L24.8869 22.2149H13.338C13.7553 19.4159 13.9326 15.7859 13.9326 11.5883V11.411C13.9326 8.8502 13.8735 6.49888 13.7248 4.41445H11.7891L12.088 0.784424H24.7568L25.0625 4.4212H18.2197C18.0998 5.91105 18.0356 7.54447 18.0103 9.3029H23.343V12.9295H17.9799C18.0103 14.9819 18.0998 16.8873 18.2197 18.5832H25.1842Z" fill="#22244A"/>
<path d="M46.5556 22.2142H41.1671C41.5861 19.4169 41.755 15.7852 41.755 11.5876V6.10962L38.2804 17.0048C38.1081 17.5402 37.9797 18.0892 37.8918 18.6449H35.2736C35.1892 18.0892 35.0608 17.5402 34.8919 17.0048L31.4004 6.10962V11.5876C31.4004 15.7852 31.5794 19.4169 31.9967 22.2142H27.0288C27.4443 19.3865 27.7416 15.4879 27.772 11.4694C27.8024 7.50994 27.7416 3.60965 27.3261 0.781982H34.0828C34.1351 1.58941 34.2753 2.38669 34.5 3.16371L36.7331 11.2295L38.9662 3.16371C39.1925 2.38838 39.3361 1.5894 39.3901 0.783672H46.2583C45.8411 3.61134 45.782 7.50994 45.8107 11.4694C45.8394 15.4879 46.1367 19.3865 46.5539 22.2142" fill="#22244A"/>
<path d="M59.2319 11.4986C59.2319 5.99356 58.3992 3.99866 56.0479 3.99866C53.6965 3.99866 52.8621 5.99356 52.8621 11.4986C52.8621 17.0036 53.6965 19.0002 56.0479 19.0002C58.3992 19.0002 59.2319 17.0053 59.2319 11.4986ZM48.5784 11.4986C48.5784 3.70136 50.8098 0.366943 56.0496 0.366943C61.2894 0.366943 63.5208 3.70136 63.5208 11.4986C63.5208 19.2958 61.2877 22.6319 56.0496 22.6319C50.8114 22.6319 48.5784 19.2991 48.5784 11.4986Z" fill="#22244A"/>
<path d="M79.9491 11.411V22.2217H76.8545C76.6586 21.6828 76.4288 21.1558 76.1704 20.644L69.9492 7.56981V11.5883C69.9492 15.7859 70.1181 19.4176 70.5438 22.2149H65.7212C66.1384 19.4176 66.3175 15.7859 66.3175 11.5883V11.411C66.3175 7.2134 66.1384 3.58169 65.7212 0.784424H71.4644C71.6519 1.56144 71.9103 2.31819 72.238 3.04622L76.3157 12.2437V11.411C76.3157 7.2134 76.1366 3.58169 75.7211 0.784424H80.5403C80.1281 3.58169 79.9491 7.2134 79.9491 11.411Z" fill="#22244A"/>
<path d="M82.5081 9.74414H88.5198L88.2563 13.1343H82.5081V9.74414Z" fill="#22244A"/>
<path d="M96.7983 18.583C99.7154 18.583 100.786 16.6185 100.786 11.2014C100.786 6.23016 99.8945 4.4143 97.4232 4.4143H95.3118C95.1615 6.49873 95.0736 8.88046 95.0736 11.4987C95.0736 14.1169 95.1648 16.5003 95.3118 18.583H96.7983ZM105.075 11.2048C105.075 18.9445 102.636 22.2198 96.8895 22.2198H90.425C90.8422 19.4209 91.0196 15.7892 91.0196 11.5916V11.4227C91.0196 8.86188 90.9605 6.51056 90.8118 4.42781H88.8828L89.1801 0.792725H97.4841C102.812 0.792725 105.073 3.88728 105.073 11.2132" fill="#22244A"/>
<path d="M117.628 11.4986C117.628 5.99356 116.794 3.99866 114.443 3.99866C112.091 3.99866 111.259 5.99356 111.259 11.4986C111.259 17.0036 112.093 19.0002 114.443 19.0002C116.792 19.0002 117.63 17.0053 117.63 11.4986H117.628ZM106.975 11.4986C106.975 3.70136 109.206 0.366943 114.446 0.366943C119.686 0.366943 121.917 3.70136 121.917 11.4986C121.917 19.2958 119.684 22.6319 114.446 22.6319C109.208 22.6319 106.975 19.2991 106.975 11.4986Z" fill="#22244A"/>
<path d="M140.192 18.5832L139.896 22.2149H135.608L134.863 20.4886C133.613 21.9768 132.16 22.6322 130.221 22.6322C126.38 22.6322 124.478 20.1322 124.478 15.1306V11.4144C124.478 7.21682 124.299 3.5851 123.881 0.787842H129.118C128.701 3.5851 128.521 7.21682 128.521 11.4144V14.2978C128.521 17.6609 129.265 18.8805 131.29 18.8805C132.307 18.889 133.283 18.4802 133.993 17.7505V11.4127C133.993 7.21513 133.815 3.5851 133.398 0.787842H138.635C138.221 3.5851 138.038 7.18641 138.038 11.3468C138.038 13.9954 138.097 16.4363 138.276 18.5799L140.192 18.5832Z" fill="#22244A"/>
</svg>
