<svg width="113" height="83" viewBox="0 0 113 83" fill="none" xmlns="http://www.w3.org/2000/svg">
<path d="M48.5112 71.7041C48.45 71.6992 48.3837 71.7907 48.2869 71.8797C47.5756 72.525 46.826 73.1358 44.116 72.9825C40.8094 72.7921 37.2861 71.2813 33.4135 70.9945C33.2401 70.9796 33.077 70.9722 32.9138 70.9673C32.9775 70.4851 33.0132 69.9757 33.0132 69.4491C33.0132 68.5268 32.9113 67.4981 32.8144 66.2569C33.1993 66.0368 33.4313 65.8241 33.4313 65.8241C34.729 64.7387 35.425 62.9237 35.425 61.0742C35.425 59.3656 34.6704 57.9735 33.4237 57.8993C31.4326 57.7831 31.0629 60.9827 31.0629 63.7471C31.0629 64.4543 31.1343 65.3098 31.2184 66.2049C31.1471 66.2049 31.0808 66.2049 31.0145 66.1975C29.5129 66.0145 28.8143 64.8029 28.6792 63.4207C28.4498 61.0495 29.4619 60.1272 30.1936 59.8552C30.1936 59.8552 29.9335 59.3804 29.2656 59.3433C28.0011 59.2692 27.3076 60.6489 27.3076 62.2462C27.3076 64.4049 28.4447 66.3731 30.5683 66.6846C30.7188 66.7044 30.8641 66.7143 31.0068 66.7192C31.0986 66.7267 31.1827 66.7267 31.272 66.7242C31.3765 67.8245 31.4836 68.9521 31.4836 69.909C31.4836 70.3095 31.4708 70.678 31.4453 71.0241C28.9724 71.3208 27.9679 72.6363 27.9603 73.885C27.9552 74.7232 28.5262 75.2301 29.3293 75.287C31.0553 75.4057 32.2382 74.0136 32.7404 71.9093C32.7991 71.9118 32.8577 71.9168 32.9138 71.9217C36.0114 72.1517 39.4327 74.021 43.2059 74.2435C46.4589 74.4314 47.9019 73.1877 48.5393 71.9291C48.5928 71.8203 48.5928 71.714 48.5138 71.7091M29.3548 74.7232C28.8245 74.6935 28.5568 74.377 28.5568 73.9097C28.5568 72.9207 29.5945 72.1319 31.3485 71.9365C31.0451 73.9344 30.265 74.7751 29.3548 74.7207M32.6538 62.4663C32.6538 56.7644 34.0942 57.9562 34.0942 60.5228C34.0942 63.5543 33.5155 64.9983 32.771 65.6659C32.7073 64.7312 32.6538 63.6779 32.6538 62.4663Z" fill="#231F20"/>
<path d="M63.7389 64.6223C63.7389 63.7494 63.4737 62.8469 62.4846 62.8469C61.707 62.8469 60.6005 63.2945 59.8637 66.3062C59.8867 65.5817 59.9173 64.7978 59.9173 64.2514C59.9173 63.381 59.7286 63.0151 59.1244 63.0151C58.6706 63.0151 58.1735 63.2153 58.1735 63.2697C58.1454 63.7247 57.6687 65.1737 56.886 66.2938C56.8707 64.0981 56.2283 62.6541 54.5227 62.6541H54.5201C52.5775 62.6541 51.7515 64.5258 51.7515 67.7032C51.7515 70.03 52.3429 71.4369 54.1275 71.4369H54.1301C55.7923 71.4369 56.7509 69.9607 56.8733 67.0504C57.7783 66.0638 58.329 64.6816 58.4845 63.8335C58.5559 64.2316 58.6043 64.9289 58.5788 66.1504C58.5559 67.3496 58.3774 68.8555 58.3774 70.6852C58.3774 71.155 58.4743 71.3602 58.9358 71.3602C59.54 71.3602 60.0371 71.1847 60.0371 71.0883C60.0371 71.0462 59.8612 70.8806 59.8612 69.8C59.8612 66.8106 61.0645 63.7 61.8829 63.7C62.1888 63.7 62.2424 64.0734 62.2424 64.8127C62.2424 65.7127 61.9186 67.8689 61.9186 69.847C61.9186 71.1699 62.1225 71.4468 62.8236 71.4468C63.3004 71.4468 63.8205 71.2218 63.8205 71.0808C63.8205 70.9745 63.4202 70.9325 63.4202 69.8791C63.4202 67.54 63.7465 65.9476 63.7465 64.6247M54.1683 70.9671C53.4341 70.9671 53.1944 69.8643 53.1944 68.0049C53.1944 67.8713 53.2021 67.6933 53.2225 67.5771C53.4953 67.9529 53.9312 68.2274 54.5176 68.2274C54.7853 68.2274 55.0402 68.1854 55.2824 68.1137C55.1473 70.1833 54.7521 70.9671 54.1683 70.9671ZM55.3079 67.6364C55.0963 67.718 54.8771 67.7675 54.6527 67.7675C53.6125 67.7675 53.3551 66.6845 53.3551 65.7671C53.3551 64.3083 53.8063 63.1288 54.5074 63.1288C55.1575 63.1288 55.336 64.3157 55.336 66.2246C55.336 66.7463 55.3258 67.2161 55.3079 67.6389" fill="#231F20"/>
<path d="M75.5479 65.1687C75.3083 67.7081 74.6276 70.3934 73.8934 70.4799C73.4217 70.5343 73.2025 69.9483 73.2025 68.3436C73.2025 65.3343 73.8092 63.4354 75.2114 63.2746C75.3975 63.2524 75.5607 63.2647 75.6932 63.2919C75.6499 63.9126 75.6015 64.5431 75.5505 65.1687M81.0878 63.109C81.6003 63.0521 81.7303 63.7296 81.7048 64.5332C81.6538 66.3877 81.1159 67.5523 80.091 67.6685C79.9075 67.6883 79.8131 67.6834 79.7494 67.676C79.7978 64.8349 80.3205 63.2005 81.0878 63.1114M77.2306 60.4187C77.2306 60.2976 77.2382 60.1739 77.2382 60.0528C77.2382 58.9055 76.8456 58.7447 76.119 58.8461C75.8564 58.8857 75.6423 58.9945 75.6423 59.0316C75.6423 59.1206 75.785 59.1923 75.7901 60.7649C75.7799 61.2718 75.7544 62.2683 75.7213 62.7974C75.5071 62.7677 75.2955 62.7653 75.0865 62.7875C73.5568 62.9507 72.2847 64.2909 71.836 66.5237C71.5096 68.623 70.8723 70.4033 70.2604 70.4775C70.0004 70.5047 69.9137 70.245 69.9137 69.7258C69.9137 68.4647 70.1533 66.4965 70.1533 65.9599C70.1533 65.275 70.1253 64.8819 69.3962 64.9659C68.9577 65.0154 68.6007 65.2503 68.6033 65.2874C68.7155 67.5152 68.022 70.5516 67.2342 70.6431C66.8416 70.6876 66.5459 70.2252 66.5459 68.7244C66.5459 65.3665 67.1272 63.3637 68.2387 63.2351C68.8404 63.1658 69.0928 63.7815 69.0928 64.4541C69.0928 64.5085 69.1081 64.5208 69.1489 64.5184C69.5772 64.4689 70.1075 64.145 70.1075 63.7049C70.1075 63.1906 69.4956 62.7133 68.5039 62.7653C66.0921 62.8938 64.9729 64.6717 64.9729 68.665C64.9729 70.5912 65.6255 71.5679 66.7804 71.4368C67.4968 71.3552 68.3127 70.8756 68.6568 69.0334C68.6415 69.303 68.6313 69.4983 68.6313 69.5379C68.6313 70.7593 68.8659 71.4814 69.725 71.3824C70.6454 71.2737 71.2955 70.4107 71.6906 68.9494C71.7952 70.4379 72.2617 71.4121 73.4421 71.2761C74.2248 71.1871 75.0329 70.5788 75.423 68.6057C75.4358 68.7713 75.446 68.9296 75.446 69.068C75.446 70.4354 75.6881 71.3058 76.7258 71.1846C77.4371 71.1006 78.0234 70.433 78.3498 69.1867C78.5639 70.6703 79.2777 71.6322 80.8201 71.4517C82.2504 71.2885 83.1044 70.0893 83.0968 68.8529C83.0968 68.3658 82.7909 68.1062 82.3371 68.1581C82.0541 68.1927 81.9088 68.2966 81.9088 68.3238C81.9088 68.351 81.9292 68.487 81.9292 68.6625C81.9292 69.8074 81.5544 70.8978 80.8125 70.9843C80.0885 71.0684 79.7519 69.8816 79.7468 68.1631C79.8131 68.1705 79.91 68.1729 80.0502 68.1581C81.9725 67.9356 83.2039 66.6325 83.2039 64.5728C83.2039 63.423 82.5895 62.4859 81.2153 62.6441C79.599 62.832 78.6863 64.1772 78.3854 66.316C78.36 66.452 78.3166 66.9589 78.3141 66.9886C78.1815 68.6131 77.7812 70.2351 77.1923 70.3044C76.894 70.3365 76.7334 70.114 76.7334 68.8826C76.7334 65.9575 77.1362 62.6466 77.2306 60.4212" fill="#231F20"/>
<path d="M40.2691 64.9636C40.2691 63.7965 39.6547 62.7061 38.278 62.5676C36.2512 62.3599 35.2952 64.2342 35.2952 67.4289C35.2952 69.8273 35.9682 71.2466 37.8777 71.442C39.3105 71.5854 40.1671 70.5518 40.1569 69.2982C40.1569 68.7987 39.851 68.4699 39.3972 68.4229C39.1168 68.3957 38.9689 68.4723 38.9689 68.4995C38.9689 68.5242 38.9893 68.6677 38.9893 68.8457C38.9893 70.0128 38.612 71.0414 37.8675 70.9648C37.1461 70.8906 36.8095 69.7532 36.8019 67.8616C36.8707 67.8838 36.9701 67.9086 37.1078 67.9209C39.0352 68.1163 40.2666 67.0629 40.2666 64.9636M38.148 63.0152C38.6604 63.0671 38.7879 63.7867 38.7675 64.6002C38.7139 66.4744 38.176 67.5401 37.1486 67.4363C36.965 67.419 36.8733 67.3918 36.8044 67.3671C36.8605 64.8178 37.3831 62.9385 38.148 63.0152Z" fill="#231F20"/>
<path d="M50.4436 64.9564C50.4436 63.955 50.13 63.1341 49.1358 63.0574C47.8712 62.961 47.1166 64.2023 46.6756 66.1655C46.7163 65.7106 46.7622 65.2259 46.7648 64.6671C46.7648 63.6756 46.339 63.0302 45.6022 62.9758C44.8884 62.9214 43.7335 63.0945 43.0477 66.168C43.0477 63.4382 43.0044 62.9981 42.1274 62.9709C41.5996 62.956 41.207 63.1712 41.207 63.228C41.2096 63.3121 41.6685 63.3838 41.6685 65.9653C41.6685 67.3648 41.5945 69.1204 41.5843 70.1193C41.6022 71.2641 41.7297 71.4224 42.3874 71.4718C42.8769 71.5089 43.3256 71.3804 43.3256 71.2889C43.3256 71.2419 43.0605 70.9551 43.0605 69.3404C43.0605 67.1843 44.0802 63.7152 44.9521 63.7819C45.2147 63.7992 45.2836 64.2097 45.2836 64.902C45.2836 66.6799 45.0694 68.1288 45.0873 69.7558C45.1051 71.2048 45.049 71.3729 45.768 71.4298C46.2574 71.4669 46.8132 71.2765 46.8132 71.1331C46.8132 71.054 46.6118 70.965 46.5991 69.7163C46.5761 67.748 47.6469 63.7992 48.5621 63.8709C48.8222 63.8907 48.9241 64.2715 48.9241 64.996C48.9241 66.0073 48.6692 67.8321 48.6692 69.8152C48.6692 71.1405 48.8706 71.4348 49.5743 71.4892C50.051 71.5262 50.5354 71.3358 50.5354 71.1949C50.5354 71.0861 50.1581 70.9575 50.1581 69.9017C50.1581 67.3376 50.4436 66.6279 50.4436 64.9564Z" fill="#231F20"/>
<path d="M29.6377 15.2461C29.6377 16.6085 30.6626 18.8933 31.1597 18.8933C31.305 18.8933 31.4045 18.8216 31.4452 18.5718C31.7027 16.8434 32.4676 14.0617 34.4536 12.8773C34.5581 12.8155 34.8334 12.6721 34.8334 12.5262C34.8334 12.3581 34.3898 12.0366 33.3752 12.0366C30.8436 12.0366 29.6377 13.2383 29.6377 15.2461Z" fill="#231F20"/>
<path d="M105.268 48.785C105.268 46.8712 102.953 44.6854 99.8041 43.1869C100.444 41.3695 100.76 39.2233 100.76 36.8421C100.76 35.4055 100.362 29.2956 100.362 28.1384C100.362 23.4849 100.469 22.0582 100.712 21.2397C100.712 20.9924 98.9883 20.2779 98.1418 20.2779C97.0201 20.2779 96.8671 20.8565 96.8671 22.0409C96.9513 27.2878 94.7842 37.1487 92.3241 37.1487C92.0003 37.1487 91.5439 36.9435 91.5439 35.8308C91.5439 33.9887 91.623 27.5845 91.623 24.3404C91.623 21.3485 91.2686 20.0158 89.2086 20.0158C87.9441 20.0158 87.1589 20.4534 87.1564 20.6314C87.1564 20.6512 87.1666 20.671 87.1819 20.6957C88.8849 24.3503 86.2998 36.9781 83.8039 36.9781C83.09 36.9781 82.6388 36.3525 82.6388 33.1801C82.6388 24.5728 83.8472 18.2973 83.8472 12.2195C83.8472 9.26715 83.1742 8.95312 81.6419 8.95312C80.4539 8.95312 79.48 9.46249 79.48 9.58365C79.48 9.81608 80.2525 10.046 80.2525 14.3114C80.2525 16.0818 80.1684 17.8497 80.046 19.6127C79.5718 22.9681 77.7796 25.2825 75.6202 27.362C75.6304 27.048 75.6457 26.7389 75.6457 26.4125C75.6457 21.1359 74.6183 18.5717 71.8063 18.5717C68.8209 18.5717 66.6845 22.6664 65.8712 27.2013H65.7335C65.8584 25.3493 66.1746 22.6096 66.1746 21.0048C66.1746 19.2517 65.7412 18.7794 64.4053 18.7794C62.9725 18.7794 61.9502 19.2542 61.9502 19.3803C61.9502 19.6449 62.4295 19.7042 62.4295 24.0783C62.4295 32.3023 61.7896 36.6171 61.7896 44.307C61.7896 47.0047 62.2688 48.0704 63.9566 48.0704C64.9993 48.0704 66.0547 47.5512 66.0547 47.2816C66.0547 47.1308 65.2109 46.4088 65.2109 40.2346C65.2109 29.3376 68.5022 20.7155 70.7151 20.7155C71.6125 20.7155 72.0459 21.7639 72.0459 25.0253C72.0459 27.2013 71.9541 29.0187 71.7986 30.5393C69.1319 32.7128 66.8043 34.5698 66.8043 36.8668C66.8043 38.3035 67.7221 39.0675 69.0962 39.0675C71.9898 39.0675 74.9013 35.3041 75.5157 28.9296C77.2595 27.3521 78.8529 25.6163 79.712 23.6481C79.4035 27.1098 79.0772 30.5146 79.0772 33.7859C79.0772 37.4405 80.0027 39.1071 82.1977 39.1071C85.4482 39.1071 87.7631 34.4882 88.2118 28.5761C88.2271 28.586 88.2399 28.5958 88.2552 28.6082C88.2042 31.0537 88.1251 34.7824 88.1251 35.6231C88.1251 38.3801 89.0914 39.2678 90.7358 39.2678C93.948 39.2678 96.5128 35.1706 96.9717 29.4835C97.1144 31.0067 97.4331 34.9085 97.4331 39.2233C97.4331 40.3014 97.3745 41.2954 97.2521 42.1954C95.6332 41.6935 93.9149 41.3918 92.245 41.3918C87.9569 41.3918 84.8058 42.5465 84.8058 45.2961C84.8058 48.0457 88.2169 49.2969 91.4572 49.2969C95.3094 49.2969 97.8971 47.4053 99.3452 44.2972C101.64 45.8772 103.287 48.2386 103.756 50.4689C103.766 50.5183 103.819 50.5332 103.893 50.5307C104.602 50.5084 105.26 49.92 105.26 48.785M68.752 37.8386C68.39 37.8386 68.0127 37.6927 68.0127 36.9509C68.0127 35.4574 69.5704 33.9293 71.5794 32.2405C70.8783 36.7358 69.5449 37.8386 68.752 37.8386ZM91.4904 48.288C89.5426 48.288 88.143 47.2396 88.143 45.6027C88.143 43.5554 90.0117 42.455 92.8059 42.4006C94.2616 42.371 95.7148 42.6528 97.0685 43.2018C96.3776 46.478 94.644 48.288 91.4904 48.288Z" fill="#231F20"/>
<path d="M31.099 39.8886C32.1417 39.8886 33.3603 39.4559 33.3603 39.1246C33.3603 39.001 32.7077 38.8526 32.7077 33.9197C32.7077 28.9867 33.1768 24.2046 33.1768 22.3378C33.1768 20.4709 32.7051 20.0852 31.6343 20.0852C30.1531 20.0852 29.011 20.6045 29.011 20.733C29.011 20.8987 29.554 20.8765 29.554 25.9503C29.554 28.4304 29.3093 34.2807 29.2532 36.1821C29.2532 39.4905 29.5693 39.8886 31.099 39.8886Z" fill="#231F20"/>
<path d="M15.5732 45.7832C22.189 45.7832 26.7652 41.5031 26.7652 35.2943C26.7652 30.1709 22.8952 27.4906 19.043 25.191C13.8422 22.0829 11.9607 20.5474 11.9607 17.2662C11.9607 13.0553 15.7288 10.412 18.7677 10.412C20.4707 10.412 22.0105 11.087 22.8901 12.2986C20.7154 14.7762 19.1883 17.7014 19.1883 20.1617C19.1883 21.9964 20.2693 22.6491 21.3451 22.6491C23.9813 22.6491 27.1323 19.0168 27.1323 15.0087C27.1323 13.5547 26.704 12.2492 25.9188 11.2156C27.9431 9.7518 30.2376 8.97787 32.5091 8.97787C33.4294 8.97787 34.1458 9.14601 34.3829 9.14601C34.4849 9.14601 34.5282 9.07924 34.5282 8.88391C34.5282 7.70693 33.4779 6.9231 32.1573 6.9231C29.8908 6.9231 27.2649 8.27316 24.9704 10.2414C23.864 9.34876 22.3726 8.81962 20.5803 8.81962C14.6554 8.81962 9.70191 12.8871 9.70191 18.8685C9.70191 24.3652 13.3476 26.6622 17.0366 28.8827C20.6492 31.0561 24.0781 33.3458 24.0781 37.4751C24.0781 41.6045 20.899 44.359 16.9168 44.359C13.2278 44.359 11.0786 42.2424 10.9792 39.3346C10.8415 35.3116 13.7912 32.8216 16.6542 32.8216C16.7562 32.8216 16.9193 32.834 16.9907 32.834C17.0315 32.834 17.057 32.8018 17.057 32.7697C17.057 32.1342 16.0372 31.4097 14.5025 31.4097C10.9639 31.4097 7.2876 33.9318 7.2876 38.5013C7.2876 43.3576 11.3667 45.7882 15.5681 45.7882M23.8002 15.5304C23.8002 18.7844 22.704 21.5488 21.3477 21.5488C20.8251 21.5488 20.3611 21.2595 20.3611 20.3224C20.3611 18.0896 21.6128 15.6145 23.5045 13.5448C23.6932 14.121 23.7977 14.7787 23.7977 15.5304" fill="#231F20"/>
<path d="M36.9298 36.5604C36.9655 39.1739 37.2434 39.5077 38.6507 39.5077C39.6934 39.5077 40.7157 39.1368 40.7157 38.9267C40.7157 38.8253 40.4328 37.9895 40.4328 35.5565C40.4328 30.4381 42.6712 20.8763 45.3124 20.8763C46.0542 20.8763 46.2429 21.6157 46.2429 22.9633C46.2429 27.0209 45.4169 31.5087 45.4169 35.2226C45.4169 38.531 45.733 38.9291 47.2627 38.9291C48.3054 38.9291 49.6464 38.4692 49.6464 38.1379C49.6464 37.9574 49.162 37.8165 49.162 34.968C49.162 29.4663 51.9587 20.7156 54.0365 20.7156C54.8498 20.7156 54.8957 21.7368 54.8957 23.1883C54.8957 25.5447 54.2685 30.6829 54.2685 35.3092C54.2685 38.4 55.0843 39.0478 56.6165 39.0478C57.6592 39.0478 58.7886 38.5212 58.7886 38.1923C58.7886 37.945 57.9932 37.8437 57.9932 35.3809C57.9932 29.1375 58.6306 25.7252 58.6306 21.8308C58.6306 19.5016 57.5573 18.5669 55.8874 18.5669C52.3284 18.5669 50.3602 22.1621 49.5827 26.7983H49.5368C49.6209 25.3543 49.8784 23.9993 49.886 22.1201C49.8937 19.8601 48.8637 18.7202 46.7655 18.7202C45.269 18.7202 42.1791 19.3037 40.652 26.8602H40.5755C40.5934 25.1466 40.7667 23.7867 40.7667 21.5637C40.7667 19.8082 40.4302 19.3384 39.0943 19.3384C37.659 19.3384 36.759 19.8131 36.759 19.9392C36.759 20.1593 37.2383 20.2483 37.2383 24.7831C37.2383 27.6687 36.9757 32.431 36.9324 36.5653" fill="#231F20"/>
<path d="M76.8818 43.489C62.4928 42.4109 48.0401 42.4109 33.6511 43.489C33.4165 43.5063 33.2253 43.7165 33.2253 43.9612V56.5272C33.2253 56.7696 33.4165 56.9525 33.6511 56.9352C48.0401 55.8572 62.4928 55.8572 76.8818 56.9352C77.1163 56.9525 77.3075 56.772 77.3075 56.5272V43.9612C77.3075 43.7189 77.1163 43.5063 76.8818 43.489Z" fill="white"/>
<path d="M77.3077 43.9588V56.5248C77.3077 56.7671 77.1165 56.9501 76.882 56.9328C62.493 55.8547 48.0403 55.8547 33.6513 56.9328C33.4168 56.9501 33.2256 56.7671 33.2256 56.5248V43.9588C33.2256 43.7165 33.4168 43.5038 33.6513 43.4865C48.0403 42.4085 62.493 42.4085 76.882 43.4865C77.1165 43.5038 77.3077 43.7165 77.3077 43.9588ZM69.2312 46.3177C69.2057 46.3177 69.1802 46.3177 69.1547 46.3128C69.1547 48.6939 69.1547 51.0751 69.1547 53.4538C69.1802 53.4538 69.2057 53.4563 69.2312 53.4587C70.1184 53.5032 70.8857 52.7812 70.8857 50.1553V49.7943C70.8857 47.1683 70.1209 46.3598 69.2312 46.3152V46.3177ZM42.4545 52.3262C42.4545 51.127 42.1333 50.4915 40.6623 48.8967C39.7751 47.9348 39.6221 47.7642 39.6195 47.2697V47.24C39.6195 46.6688 40.0632 46.3177 40.5858 46.2905C41.0753 46.2683 41.4271 46.4018 42.0109 46.7059C42.0109 46.0705 42.0109 45.435 42.0109 44.7995C41.552 44.5943 41.1059 44.5102 40.3563 44.5473C38.87 44.6215 37.7534 45.754 37.7534 47.4329C37.7534 47.4428 37.7534 47.4527 37.7534 47.4626C37.7534 48.7384 38.2735 49.3813 39.5456 50.724C40.4328 51.6685 40.5883 52.0221 40.5883 52.5018V52.5315C40.5883 53.1768 40.1294 53.4538 39.5915 53.481C39.0867 53.5082 38.5641 53.3252 37.9063 52.9889V54.8953C38.4417 55.1203 39.0714 55.2638 39.8057 55.2267C41.2767 55.15 42.4571 54.0077 42.4571 52.3584C42.4571 52.3485 42.4571 52.3386 42.4571 52.3287L42.4545 52.3262ZM49.0677 47.8631C49.0677 45.4028 47.6426 44.347 45.6031 44.4088C45.0473 44.4261 44.489 44.4459 43.9332 44.4657V54.967C44.5552 54.9448 45.1799 54.9225 45.8019 54.9052C45.8019 53.8049 45.8019 52.7046 45.8019 51.6042C45.807 51.6042 45.8121 51.6042 45.8172 51.6042C47.7191 51.4114 49.0677 50.2616 49.0677 47.8928V47.8631ZM52.4789 44.2778C51.8543 44.2827 51.2322 44.2901 50.6076 44.2976V54.7989C51.2322 54.7915 51.8543 54.7841 52.4789 54.7791V44.2778ZM59.9665 54.8212C59.3521 52.7886 58.7403 50.7586 58.1259 48.731C58.7301 47.2573 59.3317 45.7861 59.9359 44.3173C59.2298 44.305 58.5261 44.2951 57.8199 44.2852C57.3126 45.7441 56.8078 47.2054 56.303 48.6692V44.2728C55.6784 44.2679 55.0563 44.2679 54.4317 44.2679V54.7692C55.0563 54.7692 55.6784 54.7692 56.303 54.7742V51.9529C56.4407 51.5696 56.5784 51.1839 56.716 50.8006C57.1035 52.1284 57.4936 53.4587 57.8811 54.7865C58.5771 54.794 59.2705 54.8038 59.9665 54.8187V54.8212ZM65.5931 53.2387C64.8309 53.209 64.0711 53.1843 63.3088 53.162V50.4915C63.9691 50.5113 64.6269 50.5336 65.2872 50.5583C65.2872 49.9772 65.2872 49.3986 65.2872 48.8176C64.6294 48.7928 63.9691 48.7706 63.3088 48.7508V46.1397C64.0558 46.1619 64.8003 46.1867 65.5472 46.2163V44.4756C64.1782 44.4237 62.8092 44.3816 61.4401 44.3495V54.8508C62.8244 54.883 64.2088 54.925 65.5931 54.9794V53.2387ZM72.7876 49.9105C72.7876 46.5353 71.4262 44.7476 69.0349 44.6289C68.4536 44.5992 67.8698 44.572 67.2885 44.5473V55.0486C67.8698 55.0734 68.4536 55.1006 69.0349 55.1302C71.4237 55.2489 72.7876 53.6466 72.7876 50.2715V49.9105ZM45.8656 46.0976C45.8453 46.0976 45.8249 46.0976 45.8045 46.0976C45.8045 47.3686 45.8045 48.6395 45.8045 49.908C45.8096 49.908 45.8147 49.908 45.8198 49.908C46.5999 49.8388 47.199 49.2701 47.199 47.9942V47.9645C47.199 46.6293 46.6764 46.0729 45.8656 46.0952V46.0976Z" fill="#231F20"/>
<path d="M83.8956 70.1579H83.5642V69.8933H84.5432V70.1579H84.2092V70.9813H83.8956V70.1579ZM84.7217 69.8933H85.0505L85.3208 70.3137L85.5859 69.8933H85.9122V70.9813H85.6063V70.3433L85.3233 70.7785H85.308L85.025 70.3433V70.9813H84.7217V69.8933Z" fill="#231F20"/>
</svg>
