<svg width="119" height="56" viewBox="0 0 119 56" fill="none" xmlns="http://www.w3.org/2000/svg">
<path d="M82.9474 12.3242L83 13.2768V13.2565H87.0887V13.2756L87.1366 12.3123C87.1366 12.3123 86.2629 12.5346 84.9816 12.5346C83.7996 12.5346 82.9474 12.3254 82.9474 12.3254V12.3242Z" fill="#FDD10C"/>
<path d="M74.3503 12.4516V13.3121C75.5563 12.8161 79.8686 11.4082 80.7733 16.1866C80.8391 16.5535 80.8761 16.9551 80.8761 17.4045V16.5439C80.8761 16.0933 80.8391 15.693 80.7733 15.326C79.8686 10.5476 75.5563 11.9556 74.3503 12.4516Z" fill="#FDD10C"/>
<path d="M97.6171 12.9125C96.8975 12.3328 95.884 11.9133 94.5143 11.9133C92.1932 11.9133 90.1841 13.2233 89.2112 15.5766C89.0176 16.0057 88.8276 16.5627 88.7367 17.2164C88.7367 17.2212 88.7343 17.2248 88.7343 17.2284C88.7343 17.2272 88.7355 17.2248 88.7367 17.2236C88.6232 18.0423 88.665 19.0116 89.0499 20.0777C89.0535 20.0873 89.057 20.0957 89.0606 20.1052C89.0057 19.9307 88.9638 19.755 88.9339 19.5757V19.565C88.9208 19.4993 88.9088 19.4335 88.8993 19.3666V19.3355C88.8933 19.3056 88.8873 19.2746 88.8849 19.2459C88.8802 19.2244 88.879 19.2052 88.8766 19.1825C88.873 19.1503 88.8694 19.1168 88.8658 19.0857C88.8634 19.0558 88.861 19.0236 88.8586 18.9913C88.8563 18.9758 88.8563 18.9578 88.8551 18.9423C88.8515 18.9136 88.8503 18.8837 88.8479 18.8527C88.8479 18.8359 88.8455 18.8204 88.8443 18.8036C88.8443 18.7726 88.8443 18.7415 88.8443 18.7092C88.8443 18.6961 88.8419 18.6817 88.8419 18.6686C88.8419 18.6196 88.8419 18.5754 88.8419 18.5299C88.8419 18.2802 88.8574 18.0327 88.8885 17.7901C88.9053 17.6551 88.9268 17.5236 88.9531 17.3933C88.9817 17.2463 89.0188 17.1017 89.0594 16.9583C89.069 16.9212 89.0798 16.8854 89.0917 16.8495C89.1335 16.7097 89.179 16.5722 89.2303 16.4384C89.2363 16.4228 89.2435 16.4073 89.2495 16.3917C89.2961 16.2734 89.3475 16.1587 89.4013 16.0439C89.4228 15.9997 89.4431 15.9555 89.4658 15.9125C89.5184 15.8085 89.5746 15.7057 89.6331 15.6053C89.6654 15.5491 89.7001 15.4953 89.7347 15.4404C89.7801 15.3675 89.8279 15.2957 89.8769 15.224C89.9164 15.1667 89.957 15.1105 89.9989 15.0543C90.0395 15.0005 90.0813 14.9491 90.1232 14.8977C90.2068 14.7938 90.2941 14.6922 90.3849 14.5942C90.4124 14.5631 90.4411 14.5332 90.4698 14.5033C90.5355 14.4364 90.6012 14.3695 90.6694 14.3049C90.673 14.3013 90.6753 14.2989 90.6789 14.2966C90.8295 14.1555 90.9885 14.0229 91.1534 13.8986C91.1594 13.8938 91.1666 13.8878 91.1737 13.883C91.4319 13.6906 91.7044 13.5197 91.9925 13.3715L91.9948 13.3643C92.0391 13.3428 92.0833 13.3201 92.1287 13.2998C92.1299 13.2998 92.1323 13.2998 92.1335 13.2974C92.1885 13.2711 92.2458 13.2472 92.302 13.2221C92.3773 13.1886 92.4538 13.1575 92.5303 13.1265C92.5865 13.1049 92.6426 13.0822 92.6988 13.0619C92.8183 13.0189 92.939 12.9806 93.0622 12.946C93.1112 12.9316 93.1602 12.9197 93.2092 12.9077C93.3167 12.8802 93.4267 12.8551 93.5378 12.8336C93.5713 12.8277 93.6048 12.8193 93.6394 12.8133C93.7817 12.7882 93.9251 12.7703 94.0709 12.7559C94.108 12.7524 94.1462 12.7488 94.1844 12.7464C94.3374 12.7344 94.4904 12.7261 94.6458 12.7261C95.9796 12.7261 96.9669 13.081 97.6672 13.5723C97.7724 13.6464 97.8692 13.7241 97.9625 13.8029C97.9732 13.8125 97.984 13.8209 97.9947 13.8304C98.082 13.9069 98.1621 13.9846 98.2374 14.0635C98.2493 14.0766 98.2625 14.0886 98.2744 14.1017C98.3473 14.1806 98.4154 14.2607 98.4776 14.342C98.4872 14.3539 98.4967 14.3671 98.5051 14.379C98.5684 14.4627 98.6258 14.5464 98.6772 14.63C98.6808 14.636 98.6856 14.6432 98.6891 14.6491C98.8565 14.9228 98.9676 15.1941 99.0286 15.4404C99.0286 15.4404 99.0286 15.4428 99.0286 15.4439C99.0489 15.5264 99.0644 15.6065 99.074 15.683C99.074 15.6663 99.0764 15.6495 99.0764 15.6328C99.0764 14.9085 98.6509 13.7468 97.6194 12.9137L97.6171 12.9125Z" fill="#FDD10C"/>
<path d="M116.976 11.8576L111.282 15.993C110.541 13.642 108.343 11.9365 105.747 11.9365C102.541 11.9365 100.089 14.5349 100.089 17.7392C100.089 18.2209 100.147 18.6882 100.258 19.1352C100.264 19.1304 100.269 19.1256 100.275 19.1196C100.255 18.926 100.244 18.7288 100.244 18.528C100.244 15.3225 102.841 12.7229 106.049 12.7229C108.349 12.7229 110.334 14.0568 111.276 15.9954L117.271 12.9954L116.976 11.8552V11.8576Z" fill="#FDD10C"/>
<path d="M74.3503 8.47055L70.283 7.63989L70.2675 8.41558L74.3503 9.23429V8.47055Z" fill="#FDD10C"/>
<path d="M10.882 8.40332L10.8724 9.24713L12.1489 9.49095L13.9154 9.828L15.3473 10.1005V9.49215C15.0174 9.4037 14.7066 9.32004 14.4138 9.24115C12.9569 8.84554 11.9266 8.56706 10.8808 8.40452L10.882 8.40332Z" fill="#FDD10C"/>
<path d="M27.7979 5.65221C28.1302 5.65221 28.4565 5.64026 28.766 5.61755C29.8847 5.53628 30.8552 5.29963 31.6656 4.92314C32.9982 4.29806 33.5815 3.43034 33.9675 2.85784C33.9986 2.81123 34.0273 2.7694 34.0524 2.73115L34.1456 2.5949C29.4652 7.82628 20.4188 2.91163 13.1472 1.29213C13.1496 1.29213 13.152 1.28974 13.1555 1.28974C11.5444 0.895326 10.1484 0.669434 8.16201 0.669434C5.98197 0.669434 3.9322 1.52041 2.3892 3.06222C0.849786 4.60403 0 6.6514 0 8.83383C0 9.73621 0.147009 10.6147 0.426686 11.4441C0.400391 11.2673 0.381268 11.088 0.366926 10.9075C0.364535 10.874 0.362145 10.8406 0.359755 10.8071C0.346607 10.6159 0.338241 10.4246 0.338241 10.231C0.338241 8.04859 1.18683 6.00121 2.72744 4.45941C4.27044 2.9176 6.32021 2.06662 8.50025 2.06662C8.6616 2.06662 8.81698 2.06901 8.96996 2.0714C9.02016 2.0714 9.06916 2.07379 9.11817 2.07499C9.21976 2.07738 9.32135 2.08096 9.42055 2.08455H9.42294C9.53648 2.08933 9.64644 2.0953 9.7576 2.10128C9.78987 2.10367 9.82333 2.10487 9.8556 2.10606H9.85799C9.91297 2.10965 9.96795 2.11323 10.0229 2.11682C10.0229 2.11682 10.0253 2.11682 10.0265 2.11682C10.1138 2.12279 10.1986 2.12997 10.2847 2.13714C10.5046 2.15506 10.7197 2.17777 10.9301 2.20287C10.9373 2.20287 10.9444 2.20526 10.9516 2.20526C11.1476 2.22917 11.3412 2.25666 11.5325 2.28534C11.5516 2.28893 11.5719 2.29132 11.591 2.29371C11.6568 2.30446 11.7225 2.31522 11.7882 2.32598C11.8468 2.33554 11.9054 2.3463 11.9639 2.35705C11.9663 2.35705 11.9675 2.35705 11.9699 2.35705C12.0309 2.36781 12.093 2.37976 12.1552 2.39052H12.1576C12.2161 2.40128 12.2759 2.41323 12.3344 2.42518C12.3368 2.42518 12.338 2.42518 12.3404 2.42518C12.4038 2.43833 12.4683 2.45028 12.5328 2.46343C12.5818 2.47418 12.6309 2.48494 12.6787 2.4945C12.6811 2.4945 12.6822 2.4945 12.6834 2.4945C12.8675 2.53394 13.054 2.57577 13.2416 2.62C13.2416 2.62 13.244 2.62 13.2452 2.62C13.3659 2.64868 13.4878 2.67856 13.6097 2.70844C13.6145 2.70844 13.6193 2.71083 13.6229 2.71203C13.7089 2.73354 13.7974 2.75505 13.8846 2.77776C13.8882 2.77776 13.8918 2.77896 13.8954 2.78015C13.9276 2.78852 13.9611 2.79689 13.9934 2.80525H13.9958C14.0974 2.83155 14.2013 2.85784 14.3053 2.88533H14.3077C14.3113 2.88533 14.3149 2.88772 14.3173 2.88772C14.4942 2.93433 14.6758 2.98334 14.8623 3.03234C14.8647 3.03234 14.8683 3.03354 14.8707 3.03473C14.8742 3.03473 14.8778 3.03712 14.8826 3.03832C14.9173 3.04788 14.9531 3.05744 14.989 3.067C15.179 3.11839 15.3726 3.17098 15.5734 3.22596C17.3818 3.71241 19.8546 4.38411 23.7103 5.18131C25.2007 5.48728 26.5728 5.64385 27.7931 5.64385L27.7979 5.65221Z" fill="#FDD10C"/>
<path d="M49.095 11.9364C47.8783 11.9364 46.7501 12.3117 45.8166 12.9512L41.6788 15.9236C40.9163 13.6085 38.7374 11.9364 36.1678 11.9364C34.9511 11.9364 33.8228 12.3117 32.8893 12.9512L28.7659 15.9547C28.0129 13.6229 25.8257 11.9364 23.2441 11.9364C20.0398 11.9364 17.4414 14.5348 17.4414 17.7391C17.4414 18.5124 17.5944 19.2511 17.8693 19.9252C17.8705 19.8582 17.8753 19.7913 17.88 19.7244C17.88 19.7244 17.88 19.7244 17.88 19.7232C17.8621 19.6371 17.8466 19.5499 17.8322 19.4626C17.8322 19.4602 17.8322 19.4578 17.831 19.4554C17.831 19.4519 17.831 19.4495 17.8298 19.4459C17.8298 19.4411 17.8275 19.4363 17.8275 19.4315C17.8143 19.3503 17.8047 19.269 17.7952 19.1865C17.7952 19.1817 17.7952 19.177 17.794 19.1722C17.794 19.1686 17.794 19.1662 17.7928 19.1626C17.7928 19.1602 17.7928 19.159 17.7928 19.1566C17.7832 19.0694 17.7761 18.9809 17.7713 18.8925C17.7713 18.8877 17.7713 18.8829 17.7701 18.8794C17.7701 18.8758 17.7701 18.8722 17.7701 18.8686C17.7629 18.7562 17.7593 18.6427 17.7593 18.528C17.7593 15.3224 20.3601 12.7229 23.5644 12.7229C25.846 12.7229 27.8181 14.0388 28.7671 15.9547L33.8001 13.3838C34.6056 12.9607 35.5188 12.7217 36.4917 12.7217C38.7614 12.7217 40.7215 14.0245 41.68 15.9224L46.952 13.2703C47.699 12.9189 48.5369 12.7217 49.4201 12.7217C49.5301 12.7217 49.6376 12.7265 49.7464 12.7336C49.8265 12.7384 49.9054 12.7444 49.9843 12.7528H49.9866C50.0775 12.7611 50.1695 12.7695 50.2592 12.7826C50.3954 12.803 50.5305 12.8269 50.6631 12.8567C50.7348 12.8723 50.8042 12.8926 50.8747 12.9105C50.9356 12.9261 50.9978 12.9404 51.0587 12.9583C51.1089 12.9727 51.1567 12.9906 51.2057 13.0073C51.2631 13.0265 51.3205 13.0444 51.3767 13.0647C51.4723 13.0994 51.5655 13.1364 51.6587 13.1759C51.6587 13.1759 51.6611 13.1759 51.6623 13.1759C51.6647 13.1759 51.6659 13.1771 51.6683 13.1783C51.6779 13.1818 51.6874 13.1854 51.6958 13.1902C51.789 13.2297 51.8822 13.2727 51.9719 13.3169C51.9862 13.3241 51.9994 13.3312 52.0137 13.3384C52.2671 13.4663 52.5109 13.6109 52.7416 13.7723C52.7499 13.7782 52.7583 13.7842 52.7667 13.7902C52.8707 13.8643 52.9723 13.942 53.0715 14.0221C53.1707 14.1033 53.2675 14.187 53.3607 14.2743C53.3631 14.2754 53.3643 14.2766 53.3655 14.279C53.3906 14.3029 53.4181 14.3256 53.4432 14.3496C53.5316 14.4344 53.6165 14.5229 53.6989 14.6137C53.7001 14.6149 53.7025 14.6173 53.7037 14.6185C53.7085 14.6233 53.7133 14.628 53.7181 14.6328C53.7838 14.7057 53.8471 14.7822 53.9093 14.8587C53.9093 14.8587 53.9093 14.8587 53.9105 14.8611C53.9224 14.8754 53.9356 14.891 53.9475 14.9053C54.0169 14.9926 54.0838 15.0822 54.1483 15.173C54.1483 15.173 54.1483 15.173 54.1483 15.1742C54.1483 15.1742 54.1483 15.1754 54.1495 15.1766C54.1579 15.1874 54.1651 15.1993 54.1734 15.2101C54.2404 15.3069 54.3049 15.4061 54.3659 15.5065C54.3826 15.534 54.4017 15.5615 54.4184 15.5902C54.4686 15.675 54.5141 15.7623 54.5607 15.8507C54.5738 15.877 54.5894 15.9009 54.6025 15.9272C53.8424 13.6085 51.6623 11.9329 49.0891 11.9329L49.095 11.9364Z" fill="#FDD10C"/>
<path d="M84.9405 4.74902C83.4549 4.74902 82.2489 5.95378 82.2489 7.43941C82.2489 7.61033 82.2668 7.77646 82.2967 7.93901C82.3087 7.87327 82.3242 7.80993 82.3421 7.74658C82.3469 7.72985 82.3505 7.71431 82.3541 7.69877C82.372 7.63662 82.3923 7.57567 82.4138 7.51591C82.4174 7.50635 82.421 7.49798 82.4234 7.48842C82.4473 7.42627 82.4724 7.36651 82.4999 7.30675C82.5095 7.28523 82.5202 7.26492 82.5298 7.2434C82.5597 7.18484 82.5907 7.12627 82.6242 7.0701C82.6314 7.05815 82.6385 7.04619 82.6457 7.03424C82.6744 6.98763 82.7043 6.94102 82.7353 6.89679C82.7413 6.88843 82.7473 6.88006 82.7545 6.8717C82.7951 6.81552 82.8369 6.75935 82.8824 6.70676C82.8824 6.70676 82.8847 6.70437 82.8847 6.70317C82.8847 6.70317 82.8847 6.70198 82.8859 6.70078C82.9768 6.59441 83.0748 6.49521 83.1812 6.40437C83.223 6.36852 83.2672 6.33386 83.3114 6.30039C83.3138 6.2992 83.3162 6.2968 83.3186 6.29561C83.4632 6.18685 83.6174 6.09362 83.7823 6.01474C83.8003 6.00518 83.8182 5.99681 83.8361 5.98844C83.8696 5.97291 83.9031 5.95976 83.9377 5.94542C83.9688 5.93227 84.0011 5.92151 84.0321 5.91076C84.117 5.88088 84.2031 5.85458 84.2915 5.83307C84.2915 5.83307 84.2915 5.83307 84.2927 5.83307C84.3811 5.81155 84.4708 5.79482 84.5616 5.78167C84.57 5.78167 84.5772 5.77928 84.5843 5.77809H84.5867C84.6142 5.7745 84.6405 5.76972 84.668 5.76733C84.754 5.75897 84.8401 5.75418 84.9285 5.75418C85.017 5.75418 85.103 5.75897 85.1891 5.76733C85.2166 5.76972 85.2429 5.7745 85.2704 5.77809C85.2704 5.77809 85.2716 5.77809 85.2728 5.77809C85.2811 5.77809 85.2883 5.78048 85.2955 5.78167C85.3803 5.79363 85.4628 5.80797 85.5453 5.82709C85.5453 5.82709 85.5465 5.82709 85.5477 5.82709C85.6289 5.84622 85.709 5.86892 85.7879 5.89522C85.8333 5.91076 85.8763 5.92629 85.9206 5.94303C85.9552 5.95737 85.9887 5.97052 86.0221 5.98605C86.0401 5.99442 86.0568 6.00279 86.0735 6.01115C86.162 6.05298 86.2468 6.0996 86.3305 6.1498C86.3305 6.1498 86.3329 6.15099 86.3341 6.15219C86.4058 6.19641 86.4739 6.24302 86.5409 6.29322C86.5433 6.29441 86.5456 6.2968 86.548 6.298C86.5923 6.33147 86.6365 6.36613 86.6783 6.40198C86.7847 6.49282 86.8827 6.59202 86.9735 6.69839C86.9735 6.69839 86.9747 6.69839 86.9759 6.70078C86.9759 6.70078 86.9783 6.70317 86.9783 6.70437C87.0237 6.75696 87.0656 6.81313 87.1062 6.8693C87.1122 6.87767 87.1193 6.88604 87.1241 6.8944C87.2484 7.0701 87.3512 7.26252 87.4301 7.46571C87.4337 7.47408 87.4361 7.48364 87.4396 7.492C87.4647 7.56013 87.4887 7.62826 87.509 7.69877C87.5138 7.71431 87.5173 7.73104 87.5209 7.74658V7.74778C87.5377 7.81112 87.5544 7.87566 87.5663 7.9402C87.5962 7.77766 87.6141 7.61152 87.6141 7.44061C87.6141 5.95498 86.4082 4.75022 84.9226 4.75022L84.9405 4.74902Z" fill="#FDD10C"/>
<path d="M57.9583 13.3411L54.6356 15.9837L57.724 14.4383L59.1857 13.7069C59.3806 12.93 59.6327 12.1663 59.9459 11.4229C60.7168 9.59778 61.8223 7.96036 63.2279 6.55362C64.6335 5.14926 66.2709 4.04489 68.0947 3.2716C69.9832 2.47321 71.9911 2.06565 74.06 2.06565C76.6583 2.06565 79.2292 2.73018 81.4869 3.98513L81.5587 4.02577C79.2412 2.20548 76.1982 1.36646 73.0632 1.36646C65.7629 1.36646 59.6435 6.50939 57.9559 13.3411H57.9583Z" fill="#FDD10C"/>
<path d="M22.8119 9.55623C24.5892 9.92315 26.2624 10.1096 27.7875 10.1096C29.621 10.1096 31.2799 9.84068 32.7225 9.31001L32.7261 9.30762L32.7297 9.30523C32.7655 9.2885 32.8014 9.27177 32.836 9.25623C34.1615 8.62039 35.0244 7.50168 35.2635 6.10569C35.4762 4.85671 35.1392 3.49896 34.4424 2.80575C34.4065 2.76869 34.3456 2.71969 34.3002 2.69101L34.1543 2.58224L34.0516 2.73164C34.0265 2.76989 33.9978 2.81053 33.9667 2.85833C33.5806 3.43083 32.9974 4.29855 31.6647 4.92364C30.8544 5.30132 29.8839 5.53677 28.7652 5.61805C28.4556 5.64195 28.1293 5.65271 27.7971 5.65271C26.5768 5.65271 25.2047 5.49614 23.7143 5.19017C19.8586 4.39297 17.3857 3.72127 15.5774 3.23482C12.8989 2.50695 11.2794 2.06592 8.49941 2.06592C6.31937 2.06592 4.2696 2.9169 2.7266 4.4587C1.18719 6.00051 0.337402 8.04908 0.337402 10.2303C0.337402 12.4116 1.18599 14.4601 2.7266 16.0019C4.2696 17.5437 6.31937 18.3935 8.49941 18.3935H8.6763V15.4952C6.22017 15.4677 4.23853 13.4741 4.23853 11.012C4.23853 9.36858 5.12417 7.93434 6.43769 7.15388C7.04485 6.74512 7.756 6.5252 8.50061 6.5252C8.56754 6.5252 8.63327 6.5252 8.69662 6.5252H8.72411C8.74562 6.5252 8.76953 6.5252 8.78865 6.5252C10.8002 6.55628 12.0432 6.89093 14.4144 7.53515C16.2778 8.03832 18.8247 8.72915 22.8119 9.55384V9.55623Z" fill="#004739"/>
<path d="M84.9405 11.1274C86.4261 11.1274 87.6321 9.9226 87.6321 8.43697C87.6321 6.95134 86.4261 5.74658 84.9405 5.74658C83.4549 5.74658 82.2489 6.95134 82.2489 8.43697C82.2489 9.9226 83.4549 11.1274 84.9405 11.1274Z" fill="#004739"/>
<path d="M83.5768 25.8516C83.4453 25.8432 83.3102 25.836 83.1764 25.836C83.0867 25.836 82.9923 25.8372 82.9003 25.8444C82.8608 25.8468 82.8226 25.848 82.782 25.8516H82.7748C81.6752 26.0165 80.5362 26.3571 79.3768 26.8663C79.2215 26.9416 79.0601 27.0133 78.9011 27.0814L78.8091 27.1268C78.7135 27.1734 78.6263 27.2153 78.5366 27.2547C77.1275 27.8941 75.6227 28.2204 74.0618 28.2204C71.1682 28.2204 68.4467 27.091 66.3994 25.046C64.5612 23.2066 63.4652 20.821 63.2632 18.2561C63.1915 17.7409 63.1496 17.2139 63.1496 16.676C63.1496 10.4299 68.2161 5.36825 74.4598 5.36825C76.457 5.36825 78.3346 5.88816 79.9637 6.79651L81.5796 4.0368L81.4864 3.98541C79.2286 2.73045 76.6578 2.06592 74.0594 2.06592C71.9905 2.06592 69.9826 2.47229 68.0942 3.27187C66.2703 4.04517 64.6329 5.14833 63.2273 6.55389C61.8218 7.96063 60.715 9.59686 59.9453 11.4231C59.6322 12.1665 59.3788 12.9303 59.1852 13.7071L54.635 15.9852C53.692 14.0561 51.7104 12.7271 49.418 12.7271C48.5347 12.7271 47.6969 12.9243 46.9499 13.2757L41.6779 15.9278C40.7193 14.031 38.758 12.7271 36.4895 12.7271C35.5166 12.7271 34.6035 12.9649 33.798 13.3892L28.765 15.9601C27.816 14.043 25.8439 12.7283 23.5623 12.7283C20.358 12.7283 17.7572 15.3278 17.7572 18.5334C17.7572 21.7389 20.358 24.3396 23.5623 24.3396C26.7666 24.3396 29.3662 21.7389 29.3662 18.5334C29.3662 18.3445 29.3578 18.1593 29.3411 17.9764L30.6833 17.6322V28.4212H34.7708V24.0791C35.3135 24.2488 35.8907 24.3396 36.4907 24.3396C39.6963 24.3396 42.297 21.7389 42.297 18.5334C42.297 18.335 42.2851 18.1401 42.2671 17.9477L43.693 17.5832C43.6428 17.8939 43.6141 18.2107 43.6141 18.5346C43.6141 21.7401 46.2125 24.3408 49.4204 24.3408C52.6283 24.3408 55.2255 21.7401 55.2255 18.5346C55.2255 18.3493 55.2171 18.1628 55.1968 17.9824L58.7465 17.0716C58.7441 17.178 58.7417 17.2832 58.7417 17.3919C58.7417 19.4584 59.1481 21.464 59.9477 23.3536C60.7186 25.1787 61.8242 26.8173 63.2297 28.2228C64.6353 29.6284 66.2727 30.7327 68.0966 31.5048C69.985 32.3044 71.9929 32.7096 74.0618 32.7096C76.2681 32.7096 78.398 32.2506 80.3916 31.3435C80.6222 31.2395 80.8517 31.1307 81.074 31.0136L81.0824 31.0112C82.1067 30.5499 83.0772 30.2869 83.9664 30.2296C84.0931 30.2224 84.2174 30.2164 84.3405 30.2164C85.6194 30.2164 86.4333 30.6395 87.0297 30.9479C87.0787 30.9706 87.1217 30.9957 87.1624 31.0172L87.3106 31.0913L87.3799 30.9395C87.4134 30.8714 87.4361 30.8104 87.4492 30.771C87.7265 29.8232 87.3679 28.4607 86.5719 27.4579C85.8214 26.5125 84.7875 25.9591 83.5768 25.8575V25.8516ZM23.9567 20.7349C22.6527 20.7349 21.5974 19.6772 21.5974 18.3744C21.5974 17.3824 22.2081 16.5338 23.0746 16.1836C23.0412 16.3473 23.0209 16.5147 23.0209 16.6868C23.0209 17.9943 24.0786 19.0497 25.3802 19.0497C25.6921 19.0497 25.9909 18.9875 26.2622 18.8788C26.0328 19.9389 25.0874 20.7361 23.9567 20.7361V20.7349ZM26.1128 17.3119L25.9957 17.3704C25.8845 17.4146 25.7602 17.4409 25.6324 17.4409C25.1184 17.4409 24.6965 17.0238 24.6965 16.5051C24.6965 15.9864 25.1172 15.5693 25.6324 15.5693C26.1475 15.5693 26.5694 15.99 26.5694 16.5051C26.5694 16.8493 26.3853 17.1469 26.1128 17.3119ZM36.9784 20.8736C35.5836 20.8736 34.4541 19.7441 34.4541 18.3517C34.4541 16.9593 35.5836 15.831 36.9784 15.831C38.3732 15.831 39.4979 16.9593 39.4979 18.3517C39.4979 19.7441 38.3684 20.8736 36.9784 20.8736ZM49.8112 20.7337C48.5085 20.7337 47.4507 19.676 47.4507 18.3732C47.4507 17.3812 48.065 16.5326 48.9316 16.1824C48.8969 16.3461 48.8766 16.5135 48.8766 16.6856C48.8766 17.9931 49.9331 19.0485 51.2359 19.0485C51.5478 19.0485 51.8466 18.9863 52.1191 18.8776C51.8885 19.9377 50.9455 20.7349 49.8112 20.7349V20.7337ZM51.4893 17.4409C50.9718 17.4409 50.5534 17.0238 50.5534 16.5051C50.5534 15.9864 50.9718 15.5693 51.4893 15.5693C52.0068 15.5693 52.4275 15.99 52.4275 16.5051C52.4275 17.0202 52.0068 17.4409 51.4893 17.4409Z" fill="#004739"/>
<path d="M118.147 16.3646L117.27 12.9989L111.275 15.9988C110.333 14.0602 108.349 12.7264 106.048 12.7264C102.841 12.7264 100.243 15.3259 100.243 18.5315C100.243 18.7323 100.254 18.9295 100.274 19.1231C98.8665 20.5442 96.451 21.4657 94.2327 20.3063C93.4582 19.9167 92.9288 19.1183 92.9288 18.1944C92.9288 17.3578 93.365 16.6227 94.0188 16.2032C94.3259 16.0084 94.6809 15.8805 95.061 15.8447C95.0705 15.8423 95.0789 15.8423 95.0861 15.8423C95.1136 15.8387 95.1423 15.8387 95.1674 15.8375C95.1805 15.8375 95.1925 15.8351 95.2056 15.8351C95.2211 15.8351 95.2379 15.8375 95.2534 15.8375C95.2689 15.8375 95.2845 15.8351 95.3024 15.8351C96.2167 15.8351 96.9578 16.5773 96.9578 17.4893C96.9578 17.8335 96.8526 18.1538 96.6733 18.4179C97.0211 18.3988 97.3522 18.3115 97.651 18.1669C98.4972 17.7546 99.0816 16.8857 99.0816 15.8769C99.0816 15.2626 98.6669 14.2778 97.6617 13.5726C96.9613 13.0802 95.9729 12.7264 94.6403 12.7264C91.8244 12.7264 89.471 14.7331 88.9464 17.3948C88.9213 17.5251 88.8985 17.6554 88.883 17.7916C88.8519 18.0343 88.8364 18.2817 88.8364 18.5315C88.8364 18.5769 88.8364 18.6223 88.8364 18.6701C88.8364 18.6833 88.8388 18.6976 88.8388 18.7107C88.8388 18.743 88.8388 18.7729 88.8388 18.8052C88.8412 18.8219 88.8424 18.8386 88.8424 18.8542C88.8448 18.8852 88.846 18.9151 88.8495 18.9438C88.8507 18.9593 88.8507 18.9773 88.8531 18.9928C88.8555 19.0239 88.8591 19.0574 88.8603 19.0872C88.8639 19.1183 88.8663 19.1518 88.8711 19.184C88.8734 19.2067 88.8746 19.2259 88.8794 19.2474C88.8818 19.2761 88.8878 19.3071 88.8926 19.337V19.3681C88.9045 19.435 88.9153 19.4996 88.9284 19.5665V19.5773C88.9595 19.7565 89.0013 19.9334 89.0551 20.1067C88.8663 20.4139 88.534 20.6183 88.1468 20.6183C87.5611 20.6183 87.0866 20.1414 87.0866 19.5557V13.2571H82.9978V19.4314C82.9978 19.4314 82.9919 19.4219 82.9907 19.4159C82.9955 19.4613 82.9978 19.5079 82.9978 19.5557C82.9978 20.1414 82.5234 20.6183 81.9353 20.6183C81.3473 20.6183 80.874 20.1414 80.874 19.5557V17.4068C80.874 16.9562 80.8369 16.5558 80.7712 16.1889C79.8664 11.4105 75.5542 12.8184 74.3482 13.3144V9.23641L70.2606 8.4165V23.8107H74.3482V17.3207C74.3482 16.6478 74.8932 16.0992 75.5685 16.0992C76.2438 16.0992 76.7876 16.6478 76.7876 17.3207V21.1478C76.7876 22.9131 78.2983 24.3425 80.1581 24.3425C81.3533 24.3425 82.4002 23.7521 82.9967 22.8653C83.1006 22.7135 83.1879 22.5533 83.2632 22.3848C83.5213 22.9704 83.9564 23.4664 84.5074 23.8118C85.044 24.1465 85.6823 24.3437 86.3683 24.3437C88.0942 24.3437 89.5129 23.115 89.7149 21.5314C90.8085 23.2178 92.8188 24.3485 95.018 24.3485C95.1112 24.3485 95.1279 24.3461 95.1925 24.3485C96.6016 24.3485 99.145 24.0844 101.351 21.9473C102.404 23.3971 104.115 24.3389 106.045 24.3389C109.253 24.3389 111.85 21.7382 111.85 18.5327C111.85 18.3486 111.842 18.1693 111.828 17.9888L118.145 16.367L118.147 16.3646ZM106.445 20.7342C105.141 20.7342 104.082 19.6765 104.082 18.3737C104.082 17.3817 104.697 16.5331 105.563 16.1829C105.529 16.3466 105.509 16.514 105.509 16.6861C105.509 17.9936 106.566 19.049 107.871 19.049C108.181 19.049 108.482 18.9868 108.754 18.8781C108.524 19.9382 107.578 20.7354 106.445 20.7354V20.7342ZM108.121 17.4414C107.603 17.4414 107.187 17.0243 107.187 16.5056C107.187 15.9869 107.603 15.5698 108.121 15.5698C108.638 15.5698 109.059 15.9905 109.059 16.5056C109.059 17.0207 108.64 17.4414 108.121 17.4414Z" fill="#004739"/>
<path d="M15.3605 25.8734V10.1028L10.8641 9.24463V27.7069C10.8641 29.5833 12.4657 31.1084 14.4366 31.1084C15.6605 31.1084 16.7887 30.5215 17.4497 29.5403C17.7222 29.1351 17.8967 28.6869 17.9708 28.222C17.8895 28.2315 17.8058 28.2363 17.7222 28.2363C16.4158 28.2363 15.3605 27.1774 15.3605 25.8722V25.8734Z" fill="#004739"/>
<path d="M27.678 43.3931C27.678 43.4863 27.6386 43.5401 27.5717 43.5795L27.0386 43.8855V47.3241C27.0386 48.0304 26.998 48.0567 26.2785 48.0567C26.0514 48.0567 25.8781 48.0567 25.7586 48.0436C25.4251 48.0173 25.4657 47.7233 25.4657 47.3635L25.4526 45.0436C25.4526 44.8177 25.4394 44.6301 25.3988 44.4974C25.2924 44.1245 24.7187 44.1771 24.3327 44.2046C23.9466 44.2309 23.9861 44.5775 23.9861 44.9516V47.3779C23.9861 48.0041 23.9323 48.0579 23.2797 48.0579C22.8267 48.0579 22.5996 48.0711 22.4933 47.9647C22.4 47.8583 22.4 47.685 22.4 47.2046V43.8855L21.867 43.5795C21.8001 43.5389 21.7606 43.4863 21.7606 43.3931C21.7606 43.313 21.8001 43.2461 21.867 43.2066L22.4 42.8995V39.3533C22.4 39.0198 22.4263 38.8334 22.4933 38.7665C22.6259 38.6469 23.4267 38.6601 23.6801 38.6864C24.0399 38.7127 23.9861 39.0198 23.9861 39.419V41.6314C23.9861 42.058 23.9598 42.3246 24.1056 42.4716C24.2658 42.6186 24.7319 42.6186 25.0785 42.5648C25.4789 42.5242 25.4514 42.1118 25.4514 41.7246V40.5377C25.4514 40.0178 25.4514 39.6174 25.4645 39.3509C25.4645 39.0175 25.4908 38.831 25.5578 38.7641C25.6773 38.6446 26.4769 38.6577 26.7303 38.684C27.09 38.7103 27.0374 39.0175 27.0374 39.3641V42.8959L27.5705 43.203C27.6374 43.2425 27.6769 43.3094 27.6769 43.3895L27.678 43.3931Z" fill="#004739"/>
<path d="M33.7487 47.9791C33.6292 48.0986 32.6826 48.0592 32.5762 48.0592C32.4436 48.0461 32.3635 48.0186 32.3097 47.966C32.1902 47.8596 32.177 47.66 32.1232 47.2333C32.097 47.0337 32.0826 46.8736 32.0563 46.7672C32.0432 46.6333 32.0169 45.9939 31.5496 45.9808C31.4826 45.9676 31.4432 45.9676 31.4432 45.9676C30.75 45.9676 30.6436 45.9939 30.5635 46.674C30.5504 46.7803 30.4834 47.1401 30.3771 47.7532C30.3376 47.9528 30.2301 48.0461 30.0436 48.0461C29.6301 48.0592 29.2835 48.0592 29.0038 48.0461C28.6309 48.0329 28.7241 47.7532 28.7767 47.366C29.097 45.5529 29.2835 44.4198 29.3635 43.9537C29.3635 43.9131 29.3767 43.8736 29.3767 43.8605L28.9106 43.5808C28.8305 43.5402 28.791 43.4876 28.791 43.3943C28.791 43.3143 28.8305 43.2473 28.9106 43.2079L29.55 42.835C29.8428 41.182 30.0436 39.9821 30.1631 39.2494C30.2432 38.8096 30.3496 38.7295 30.7763 38.7295H31.9894C32.1232 38.7426 32.2296 38.7701 32.2822 38.8096C32.3754 38.9028 32.4292 39.143 32.4687 39.3558C32.8416 41.5681 33.0424 42.7418 33.0555 42.8481L33.6818 43.2079C33.7487 43.2473 33.7882 43.3143 33.7882 43.3943C33.7882 43.4876 33.7487 43.5414 33.6818 43.5808L33.2288 43.8473C33.5886 46.0202 33.7882 47.1532 33.8025 47.2596C33.8694 47.6457 33.8563 47.8859 33.7487 47.9791ZM31.6954 44.0995C31.6691 43.8593 31.5221 43.1529 31.5221 43.1135C31.5089 43.0597 31.4814 42.9928 31.442 42.9139C31.3619 42.7669 31.2149 42.8207 31.1623 42.9139C31.0691 43.1673 30.989 43.5808 30.9496 44.1402C30.9364 44.2071 30.9364 44.274 30.9364 44.3135C30.9364 44.5131 31.6834 44.4999 31.7097 44.3266C31.7097 44.3003 31.7097 44.2202 31.6966 44.0995H31.6954Z" fill="#004739"/>
<path d="M40.0454 47.7793C40.0717 47.9132 39.9916 48.0327 39.8458 48.0458C39.486 48.0865 39.0856 48.0865 38.6458 48.059C38.353 48.0184 38.3123 47.7124 38.2322 47.3395C38.1916 47.1399 38.0984 46.7789 37.9657 46.2602L37.7123 45.181C37.6586 44.9276 37.5928 44.581 37.2056 44.6347C36.8195 44.6885 36.8458 45.0483 36.8327 45.4618V47.3419C36.8327 47.7423 36.8865 48.0482 36.5124 48.0614C36.2052 48.0745 35.8861 48.0745 35.5658 48.0614C35.206 48.0482 35.2598 47.7279 35.2598 47.2881V43.9021L34.7267 43.6093C34.6598 43.5555 34.6204 43.5029 34.6204 43.4097C34.6204 43.3296 34.661 43.2627 34.7267 43.2232L35.2598 42.9173V39.4117C35.2598 39.0783 35.2861 38.8787 35.353 38.8117C35.4725 38.6922 35.8598 38.7185 36.6331 38.7185H37.3394C37.6729 38.7054 38.0589 38.758 38.4856 38.8787C39.2051 39.052 39.7382 39.6783 39.7657 40.4253C39.7788 40.785 39.7788 41.5715 39.7657 42.7977C39.7657 43.1037 39.6318 43.424 39.3796 43.7443C39.1932 43.9714 39.1526 44.2511 39.2326 44.5846C39.3521 45.0112 39.5924 45.9172 39.9521 47.3299C40.0059 47.5032 40.0322 47.6634 40.0454 47.7829V47.7793ZM37.6454 40.3547C37.5522 40.3416 37.4984 40.3285 37.4458 40.3141C36.6988 40.2209 36.8458 40.5806 36.8458 41.6874C36.8458 42.2742 36.859 42.6471 36.859 42.6734C36.859 42.9005 36.9653 43.0332 37.1924 43.1001C37.686 43.2196 38.1522 42.9268 38.2585 42.4332C38.2717 42.3531 38.2848 42.2993 38.2848 42.273V41.0731C38.2585 40.6464 38.0852 40.4599 37.6454 40.3535V40.3547Z" fill="#004739"/>
<path d="M46.8084 43.3798C46.8084 43.4731 46.7689 43.5268 46.702 43.5663L46.1689 43.8723V45.7786C46.1689 46.2591 46.0494 46.6714 45.8223 47.0312C44.9821 48.2837 44.4765 48.0578 42.0634 48.0578H42.0096C41.8758 48.0578 41.7826 48.0172 41.7431 47.9778C41.6367 47.8714 41.6367 47.7112 41.6367 47.2308V43.8711L41.1037 43.5651C41.0368 43.5245 40.9973 43.4719 40.9973 43.3786C40.9973 43.2986 41.0368 43.2316 41.1037 43.1922L41.6367 42.8862V39.4476C41.6367 39.248 41.6499 39.0879 41.6499 38.9815C41.6893 38.6612 41.9834 38.6887 42.2367 38.6887C43.4762 38.6755 44.1024 38.6755 44.1299 38.6755C44.6092 38.6755 45.0227 38.8357 45.3562 39.1823C46.01 39.8492 46.1689 40.2891 46.1689 40.889V42.8886L46.702 43.1946C46.7689 43.2352 46.8084 43.301 46.8084 43.381V43.3798ZM44.5817 40.9667C44.5423 40.5269 44.302 40.301 43.8754 40.2735C43.3686 40.2341 43.2084 40.3536 43.2216 40.8472V45.7392C43.2216 46.0595 43.2084 46.326 43.4618 46.4324C43.9686 46.6188 44.5949 46.2722 44.5949 45.7523V41.3265C44.5949 41.1532 44.5949 41.0337 44.5817 40.9667Z" fill="#004739"/>
<path d="M56.394 46.2323C56.3402 46.659 56.1538 47.0451 55.861 47.3917C55.261 48.098 55.0076 48.0048 54.1016 48.0586C53.5949 48.0849 53.155 47.9785 52.7821 47.7526C52.5551 47.6056 52.3817 47.4598 52.2754 47.2996C51.9551 46.806 51.7686 46.3399 51.7017 45.9001C51.6754 45.7005 51.6347 45.367 51.9144 45.3264C52.3543 45.2594 52.6614 45.22 52.8072 45.22C53.0738 45.2068 53.167 45.2869 53.2471 45.5666C53.2471 45.5929 53.2734 45.6467 53.2877 45.7399C53.3271 45.9001 53.3546 45.9801 53.4204 46.1128C53.6331 46.4857 53.9008 46.6327 54.2331 46.5526C54.5534 46.4726 54.82 46.1259 54.82 45.7662C54.8331 44.9798 54.5534 44.859 53.8602 44.1527L53.7407 44.032H53.0212C52.8479 44.0451 52.7415 43.8587 52.8216 43.7116L53.0343 43.3387L52.6614 42.9658C52.022 42.2726 51.728 41.4599 51.7949 40.5659C51.875 39.5261 52.5276 38.7803 53.3809 38.5663C55.3399 38.0727 56.2207 39.3791 56.3534 40.499C56.3797 40.6591 56.3128 40.7392 56.1801 40.7918C55.8203 40.9113 55.4737 40.9782 55.1534 40.9782C54.9933 40.9782 54.8869 40.9113 54.8331 40.7655L54.6992 40.4189C54.3789 39.7125 53.5662 39.8583 53.473 40.6053C53.406 41.1121 53.5662 41.5914 53.9666 42.0443C54.006 42.0981 54.1937 42.2846 54.2869 42.391H54.9263C55.0996 42.391 55.206 42.5643 55.1128 42.7113L54.9658 42.9778C55.206 43.1905 55.3518 43.3244 55.592 43.6041C56.2721 44.3774 56.5255 45.257 56.3916 46.2299L56.394 46.2323Z" fill="#004739"/>
<path d="M62.1496 47.7661C62.1233 48.0864 61.803 48.0589 61.5233 48.0589H58.6309C58.4445 48.0589 58.2174 48.0589 58.0979 47.9526C57.9783 47.8462 57.9915 47.6729 57.9915 47.1793V43.8865L57.4584 43.5805C57.3915 43.5399 57.3521 43.4873 57.3521 43.3941C57.3521 43.314 57.3915 43.2471 57.4584 43.2076L57.9915 42.9005V39.4212C57.9915 38.7543 58.0046 38.728 58.6584 38.728H61.5376C61.8436 38.728 62.0181 38.7687 62.0838 38.8213C62.2034 38.942 62.1902 39.6077 62.1639 39.9149C62.1376 40.2352 61.858 40.2077 61.4707 40.2077H60.1512C59.7114 40.2208 59.5919 40.3547 59.5644 40.7682C59.5512 41.2212 59.5512 41.661 59.5775 42.0877C59.5775 42.261 59.6313 42.3937 59.697 42.4738C59.8572 42.6208 60.15 42.6076 60.5636 42.6076C60.7763 42.6076 60.9365 42.6076 61.0297 42.6208C61.35 42.6208 61.4301 42.714 61.4432 43.0343C61.4564 43.314 61.4564 43.5937 61.4301 43.8745C61.4301 44.061 61.3237 44.1542 61.1372 44.1674C60.9376 44.1805 60.6305 44.1805 60.2444 44.1805C59.7377 44.1805 59.605 44.2475 59.5775 44.82C59.5512 45.1403 59.5512 45.5 59.5644 45.9124C59.5907 46.339 59.7114 46.4717 60.1512 46.4861H61.4576C61.858 46.4992 62.1245 46.4598 62.1639 46.7657C62.1902 47.1123 62.1902 47.4458 62.1508 47.7649L62.1496 47.7661Z" fill="#004739"/>
<path d="M67.6571 47.7514C67.6439 48.1112 67.3368 48.0574 67.044 48.0574H64.3117C63.7117 48.0574 63.6855 48.0311 63.6855 47.4311V43.8718L63.1524 43.5658C63.0723 43.5121 63.046 43.4595 63.046 43.3794C63.046 43.2862 63.0723 43.2324 63.1524 43.1798L63.6855 42.8738V39.3683C63.6855 38.7157 63.6986 38.6882 64.3524 38.6882C64.6189 38.6882 64.8054 38.6882 64.9392 38.7014C65.3121 38.7277 65.2595 39.0217 65.2595 39.5285V42.8738L65.7926 43.1798C65.8595 43.2336 65.899 43.2862 65.899 43.3794C65.899 43.4595 65.8583 43.5132 65.7926 43.5658L65.2595 43.8718V45.471C65.2595 45.7375 65.2727 45.9108 65.2727 46.004C65.3265 46.5777 65.4854 46.457 66.6328 46.4845C67.4993 46.4845 67.6451 46.4176 67.6595 46.8048C67.6726 47.1251 67.6726 47.4311 67.6595 47.7514H67.6571Z" fill="#004739"/>
<path d="M72.3809 39.3548C72.3809 39.6213 72.3809 39.8209 72.3678 39.9285C72.3678 40.0492 72.3415 40.1281 72.3008 40.1819C72.1945 40.2751 72.008 40.2751 71.7678 40.2751C71.5013 40.2751 71.2216 40.262 71.0614 40.4221C70.9013 40.5691 70.9144 40.795 70.9144 41.3149V42.8878L71.5013 43.2213C71.5682 43.2751 71.6076 43.3276 71.6076 43.4077C71.6076 43.5009 71.567 43.5679 71.5013 43.6073L70.9144 43.9408V47.2467C70.9144 47.7272 70.9539 48.0331 70.6347 48.0594C70.2881 48.0726 69.9547 48.0726 69.6356 48.0594C69.2889 48.0463 69.3427 47.726 69.3427 47.3268V43.9539L68.7296 43.6073C68.6627 43.5667 68.6364 43.5009 68.6364 43.4077C68.6364 43.3276 68.6627 43.2739 68.7296 43.2213L69.3427 42.8747V41.1823C69.3427 40.7293 69.3427 40.556 69.2232 40.4221C69.0893 40.2751 68.8228 40.2751 68.5563 40.2751C68.4093 40.2751 68.3029 40.2751 68.2503 40.262C67.9838 40.2488 67.8906 40.1819 67.8774 39.9153C67.8643 39.6357 67.8643 39.3285 67.8774 39.0225C67.8774 38.9162 67.918 38.8361 67.9575 38.7954C68.0639 38.7022 68.224 38.7285 68.5312 38.7285H71.7307C72.357 38.7285 72.3833 38.7285 72.3833 39.3548H72.3809Z" fill="#004739"/>
<path d="M77.5907 46.9517C77.6038 47.2051 77.6038 47.4716 77.5907 47.7381C77.5775 47.8445 77.5512 47.9246 77.4974 47.9652C77.4042 48.0584 77.2572 48.0584 76.8305 48.0584H73.9381C73.6585 48.0584 73.3382 48.0847 73.325 47.8182C73.2844 47.0855 73.3119 46.5788 73.4182 46.3123L74.4581 43.6995L74.2716 43.5932C74.2047 43.5394 74.1652 43.4868 74.1652 43.3936C74.1652 43.3135 74.2047 43.2597 74.2716 43.2071L74.7652 42.9274L75.5517 40.941L75.6317 40.7546C75.7919 40.2478 75.2983 40.2741 74.9254 40.2741H73.925C73.6453 40.2741 73.325 40.3147 73.3119 39.9681C73.2987 39.6478 73.2987 39.3287 73.3119 39.0215C73.3382 38.6618 73.6716 38.7012 73.9788 38.7012H76.9249C77.5249 38.7012 77.5787 38.755 77.605 39.3538C77.6313 39.8737 77.5381 40.3673 77.3385 40.8466C77.0851 41.486 76.8186 42.1135 76.4325 43.0996L76.619 43.2059C76.6859 43.2597 76.7253 43.3123 76.7253 43.3924C76.7253 43.4856 76.6847 43.5394 76.619 43.592L76.1254 43.8717C75.805 44.6844 75.4991 45.4577 75.3652 45.8174C75.2588 46.084 75.0186 46.47 75.5517 46.5501C75.7381 46.5895 76.0178 46.5895 76.6584 46.5895H77.2321C77.4855 46.6027 77.5787 46.6828 77.5919 46.9493L77.5907 46.9517Z" fill="#004739"/>
<path d="M83.272 47.7661C83.2457 48.0864 82.9254 48.0589 82.6457 48.0589H79.7533C79.5669 48.0589 79.3398 48.0589 79.2203 47.9526C79.1008 47.8462 79.1139 47.6729 79.1139 47.1793V43.8865L78.5809 43.5805C78.5139 43.5399 78.4745 43.4873 78.4745 43.3941C78.4745 43.314 78.5139 43.2471 78.5809 43.2076L79.1139 42.9005V39.4212C79.1139 38.7543 79.1271 38.728 79.7808 38.728H82.6601C82.966 38.728 83.1405 38.7687 83.2063 38.8213C83.3258 38.942 83.3126 39.6077 83.2863 39.9149C83.2601 40.2352 82.9804 40.2077 82.5931 40.2077H81.2736C80.8338 40.2208 80.7143 40.3547 80.6868 40.7682C80.6736 41.2212 80.6737 41.661 80.6999 42.0877C80.6999 42.261 80.7537 42.3937 80.8195 42.4738C80.9796 42.6208 81.2724 42.6076 81.686 42.6076C81.8987 42.6076 82.0589 42.6076 82.1521 42.6208C82.4724 42.6208 82.5525 42.714 82.5656 43.0343C82.5788 43.314 82.5788 43.5937 82.5525 43.8745C82.5525 44.061 82.4461 44.1542 82.2597 44.1674C82.0601 44.1805 81.7529 44.1805 81.3669 44.1805C80.8601 44.1805 80.7274 44.2475 80.6999 44.82C80.6737 45.1403 80.6736 45.5 80.6868 45.9124C80.7131 46.339 80.8338 46.4717 81.2736 46.4861H82.58C82.9804 46.4992 83.2469 46.4598 83.2863 46.7657C83.3126 47.1123 83.3126 47.4458 83.2732 47.7649L83.272 47.7661Z" fill="#004739"/>
<path d="M89.6072 47.7793C89.6335 47.9132 89.5535 48.0327 89.4077 48.0458C89.0479 48.0865 88.6475 48.0865 88.2077 48.059C87.9149 48.0184 87.8742 47.7124 87.7941 47.3395C87.7535 47.1399 87.6603 46.7789 87.5276 46.2602L87.2742 45.181C87.2204 44.9276 87.1547 44.581 86.7675 44.6347C86.3814 44.6885 86.4077 45.0483 86.3946 45.4618V47.3419C86.3946 47.7423 86.4483 48.0482 86.0742 48.0614C85.7683 48.0745 85.448 48.0745 85.1276 48.0614C84.7679 48.0482 84.8217 47.7279 84.8217 47.2881V43.9021L84.2886 43.6093C84.2217 43.5555 84.1823 43.5029 84.1823 43.4097C84.1823 43.3296 84.2229 43.2627 84.2886 43.2232L84.8217 42.9173V39.4117C84.8217 39.0783 84.848 38.8787 84.9149 38.8117C85.0344 38.6922 85.4217 38.7185 86.195 38.7185H86.9013C87.2348 38.7054 87.6208 38.758 88.0475 38.8787C88.767 39.052 89.3001 39.6783 89.3276 40.4253C89.3407 40.785 89.3407 41.5715 89.3276 42.7977C89.3276 43.1037 89.1949 43.424 88.9415 43.7443C88.7551 43.9714 88.7144 44.2511 88.7945 44.5846C88.914 45.0112 89.1543 45.9172 89.514 47.3299C89.5678 47.5032 89.5941 47.6634 89.6072 47.7829V47.7793ZM87.2073 40.3547C87.1141 40.3416 87.0603 40.3285 87.0077 40.3141C86.2607 40.2209 86.4077 40.5806 86.4077 41.6874C86.4077 42.2742 86.4209 42.6471 86.4209 42.6734C86.4209 42.9005 86.5272 43.0332 86.7543 43.1001C87.2479 43.2196 87.7141 42.9268 87.8204 42.4332C87.8336 42.3531 87.8467 42.2993 87.8467 42.273V41.0731C87.8204 40.6464 87.6471 40.4599 87.2073 40.3535V40.3547Z" fill="#004739"/>
<path d="M79.2109 47.2085C79.2109 47.7033 79.1978 47.8778 79.3185 47.9842C79.4392 48.0917 79.6663 48.0917 79.8539 48.0917H82.7571C83.0379 48.0917 83.3594 48.118 83.3857 47.7977C83.4252 47.4762 83.4252 47.1427 83.3989 46.7949C83.3594 46.4878 83.0917 46.5272 82.6901 46.5141H81.379C80.938 46.5009 80.8173 46.367 80.791 45.9392C80.7778 45.5244 80.7778 45.1635 80.8041 44.842C80.8304 44.2671 80.9643 44.2002 81.4734 44.2002C81.8619 44.2002 82.169 44.2002 82.3698 44.187C82.5575 44.1739 82.6638 44.0806 82.6638 43.893C82.6901 43.6121 82.6901 43.3312 82.677 43.0504C82.6638 42.7289 82.5838 42.6356 82.2623 42.6356C82.169 42.6225 82.0077 42.6225 81.7937 42.6225C81.379 42.6225 81.085 42.6356 80.9236 42.4886C80.8567 42.4086 80.8029 42.2747 80.8029 42.1002C80.7766 41.6723 80.7766 41.2301 80.7898 40.7759C80.8161 40.3612 80.9368 40.2273 81.3778 40.2142H82.7021C83.0905 40.2142 83.3714 40.2417 83.3977 39.9202C83.424 39.6118 83.4383 38.9437 83.3176 38.823C83.2507 38.7692 83.0762 38.7297 82.769 38.7297H79.8802C79.2253 38.7297 79.2109 38.756 79.2109 39.4253V42.9165L78.6755 43.2237C78.6085 43.2631 78.5691 43.3301 78.5691 43.4113C78.5691 43.5046 78.6085 43.5583 78.6755 43.599L79.2109 43.9061V47.2097V47.2085Z" fill="#004739"/>
<path d="M23.7882 54.6269C23.7941 54.8349 23.726 55.0165 23.585 55.1839C23.2838 55.5436 23.0483 55.497 22.0599 55.4851C22.0025 55.4851 21.9607 55.4695 21.9356 55.4432C21.8986 55.4014 21.8986 55.3237 21.8986 55.1528V52.0871C21.8986 51.9616 21.9093 51.8851 21.9296 51.8636C21.9822 51.811 22.097 51.8218 22.4914 51.8266C22.6264 51.8266 22.7364 51.8266 22.8189 51.8218C23.0639 51.817 23.2611 51.8839 23.4284 52.0238C23.7667 52.3154 23.8754 53.017 23.5587 53.4389C23.4858 53.5381 23.4858 53.5799 23.5694 53.6779C23.7248 53.8548 23.7977 54.0795 23.7929 54.3389C23.787 54.4058 23.787 54.5062 23.787 54.6245L23.7882 54.6269ZM22.8619 53.2476C22.9288 53.2273 22.9766 53.1903 23.0077 53.1389C23.0603 53.0457 23.0866 52.9369 23.0866 52.821L23.0555 52.6656C23.0137 52.5353 22.9252 52.4576 22.7854 52.4469C22.6503 52.4361 22.587 52.4779 22.5667 52.6082C22.5308 52.8628 22.4997 53.3684 22.8631 53.2488L22.8619 53.2476ZM23.0854 54.1058C23.028 53.9444 22.8248 53.8249 22.679 53.8919C22.538 53.9648 22.5595 54.0329 22.5595 54.3867C22.5595 54.7715 22.5332 54.8504 22.7149 54.86C22.8762 54.8647 22.9862 54.8134 23.0483 54.6986C23.1475 54.511 23.1631 54.3138 23.0854 54.1046V54.1058Z" fill="#004739"/>
<path d="M25.8081 55.3715C25.7974 55.497 25.6731 55.4863 25.5631 55.4863H24.4337C24.3607 55.4863 24.2723 55.4863 24.2257 55.4444C24.1791 55.4026 24.1839 55.3357 24.1839 55.1432V52.1146C24.1839 51.854 24.1898 51.8445 24.4444 51.8445H25.5679C25.6874 51.8445 25.7555 51.86 25.7818 51.8803C25.8284 51.9281 25.8237 52.1875 25.8129 52.307C25.8022 52.4325 25.6934 52.4218 25.5428 52.4218H25.0277C24.8556 52.4265 24.8089 52.4779 24.7994 52.6405C24.7934 52.8174 24.7934 52.9895 24.8042 53.1556C24.8042 53.2225 24.8245 53.2751 24.8508 53.3062C24.9129 53.3624 25.0277 53.3576 25.189 53.3576C25.2727 53.3576 25.3348 53.3576 25.3707 53.3624C25.495 53.3624 25.5261 53.3994 25.532 53.5237C25.5368 53.6325 25.5368 53.7425 25.5261 53.8512C25.5261 53.9241 25.4842 53.96 25.4113 53.966C25.3324 53.9707 25.2129 53.9707 25.0623 53.9707C24.8651 53.9707 24.8125 53.997 24.8018 54.2205C24.791 54.346 24.791 54.4871 24.797 54.6472C24.8077 54.8145 24.8544 54.8659 25.0253 54.8719H25.5356C25.6922 54.8767 25.7962 54.8612 25.8117 54.9807C25.8225 55.1157 25.8225 55.246 25.8069 55.3703L25.8081 55.3715Z" fill="#004739"/>
<path d="M28.1751 54.6269C28.1811 54.8349 28.113 55.0165 27.9719 55.1839C27.6708 55.5436 27.4353 55.497 26.4469 55.4851C26.3895 55.4851 26.3477 55.4695 26.3226 55.4432C26.2855 55.4014 26.2855 55.3237 26.2855 55.1528V52.0871C26.2855 51.9616 26.2963 51.8851 26.3166 51.8636C26.3692 51.811 26.4839 51.8218 26.8783 51.8266C27.0134 51.8266 27.1234 51.8266 27.2058 51.8218C27.4508 51.817 27.648 51.8839 27.8154 52.0238C28.1536 52.3154 28.2624 53.017 27.9457 53.4389C27.8727 53.5381 27.8727 53.5799 27.9564 53.6779C28.1118 53.8548 28.1847 54.0795 28.1799 54.3389C28.1739 54.4058 28.1739 54.5062 28.1739 54.6245L28.1751 54.6269ZM27.2489 53.2476C27.3158 53.2273 27.3636 53.1903 27.3947 53.1389C27.4473 53.0457 27.4735 52.9369 27.4735 52.821L27.4425 52.6656C27.4006 52.5353 27.3122 52.4576 27.1724 52.4469C27.0373 52.4361 26.974 52.4779 26.9536 52.6082C26.9178 52.8628 26.8867 53.3684 27.25 53.2488L27.2489 53.2476ZM27.4724 54.1058C27.415 53.9444 27.2118 53.8249 27.066 53.8919C26.925 53.9648 26.9465 54.0329 26.9465 54.3867C26.9465 54.7715 26.9202 54.8504 27.1018 54.86C27.2632 54.8647 27.3732 54.8134 27.4353 54.6986C27.5345 54.511 27.55 54.3138 27.4724 54.1046V54.1058Z" fill="#004739"/>
<path d="M28.9767 55.4863C28.8775 55.4863 28.8046 55.4863 28.7532 55.4815C28.6122 55.472 28.6289 55.3405 28.6289 55.1959V52.0943C28.6289 51.97 28.6397 51.8924 28.66 51.8708C28.7114 51.8195 29.0245 51.829 29.1225 51.8338C29.2636 51.8493 29.242 51.9641 29.242 52.141V55.221C29.242 55.4815 29.2313 55.4863 28.9767 55.4863Z" fill="#004739"/>
<path d="M31.4707 52.6861V54.5961C31.4707 54.7837 31.4241 54.9451 31.3356 55.0849C31.0081 55.5737 30.8097 55.4853 29.8679 55.4853H29.8476C29.795 55.4853 29.7592 55.4698 29.7436 55.4542C29.7018 55.4124 29.7018 55.3502 29.7018 55.1626V52.1244C29.7018 52.0455 29.7078 51.9834 29.7078 51.9415C29.7233 51.8172 29.838 51.8268 29.936 51.8268C30.4201 51.822 30.6651 51.822 30.6747 51.822C30.8623 51.822 31.0237 51.8842 31.1528 52.0192C31.4073 52.2798 31.4707 52.4507 31.4707 52.685V52.6861ZM30.8516 52.7172C30.836 52.5451 30.7428 52.4567 30.5755 52.4471C30.3771 52.4316 30.3149 52.4782 30.3209 52.6706V54.5805C30.3209 54.706 30.3149 54.81 30.4141 54.8518C30.6113 54.9248 30.8563 54.7897 30.8563 54.5853V52.8583C30.8563 52.7913 30.8563 52.7435 30.8504 52.7172H30.8516Z" fill="#004739"/>
<path d="M33.8799 55.455C33.8333 55.5016 33.464 55.486 33.4222 55.486C33.3708 55.4813 33.3397 55.4705 33.3182 55.4502C33.2716 55.4083 33.2656 55.3307 33.2453 55.1633C33.2345 55.0856 33.2297 55.0235 33.219 54.9817C33.2142 54.9291 33.2034 54.6805 33.0218 54.6745C32.9955 54.6697 32.9799 54.6697 32.9799 54.6697C32.7098 54.6697 32.668 54.6805 32.6369 54.9458C32.6321 54.9876 32.6058 55.1287 32.564 55.3677C32.5485 55.4454 32.5066 55.4824 32.4337 55.4824C32.2724 55.4872 32.1373 55.4872 32.0286 55.4824C31.8827 55.4777 31.9186 55.3677 31.9401 55.2171C32.0656 54.5096 32.4349 52.3331 32.4815 52.0474C32.5126 51.8753 32.5544 51.8455 32.7206 51.8455H33.1939C33.2465 51.8502 33.2871 51.861 33.3086 51.8765C33.3445 51.9136 33.366 52.0068 33.3815 52.0905C33.5273 52.9546 33.8966 55.1346 33.9026 55.1765C33.9289 55.3271 33.9229 55.4203 33.8823 55.4573L33.8799 55.455ZM33.0779 53.9406C33.0672 53.8474 33.011 53.5713 33.011 53.5558C33.0062 53.5355 32.9955 53.5092 32.9799 53.4781C32.9489 53.4207 32.8915 53.441 32.8712 53.4781C32.8353 53.5761 32.8042 53.7387 32.7875 53.9562C32.7827 53.9825 32.7827 54.0076 32.7827 54.0231C32.7827 54.102 33.0744 54.096 33.0839 54.0279C33.0839 54.0183 33.0839 53.9861 33.0779 53.9394V53.9406Z" fill="#004739"/>
<path d="M37.5171 55.455C37.4705 55.5016 37.1012 55.486 37.0594 55.486C37.008 55.4813 36.9769 55.4705 36.9554 55.4502C36.9088 55.4083 36.9028 55.3307 36.8825 55.1633C36.8717 55.0856 36.8669 55.0235 36.8562 54.9817C36.8514 54.9291 36.8406 54.6805 36.659 54.6745C36.6327 54.6697 36.6171 54.6697 36.6171 54.6697C36.347 54.6697 36.3052 54.6805 36.2741 54.9458C36.2693 54.9876 36.243 55.1287 36.2012 55.3677C36.1857 55.4454 36.1438 55.4824 36.0709 55.4824C35.9096 55.4872 35.7745 55.4872 35.6658 55.4824C35.5199 55.4777 35.5558 55.3677 35.5773 55.2171C35.7028 54.5096 36.0721 52.3331 36.1187 52.0474C36.1498 51.8753 36.1916 51.8455 36.3578 51.8455H36.8311C36.8837 51.8502 36.9243 51.861 36.9458 51.8765C36.9817 51.9136 37.0032 52.0068 37.0187 52.0905C37.1645 52.9546 37.5339 55.1346 37.5398 55.1765C37.5661 55.3271 37.5601 55.4203 37.5195 55.4573L37.5171 55.455ZM36.7151 53.9406C36.7044 53.8474 36.6482 53.5713 36.6482 53.5558C36.6434 53.5355 36.6327 53.5092 36.6171 53.4781C36.5861 53.4207 36.5287 53.441 36.5084 53.4781C36.4725 53.5761 36.4414 53.7387 36.4247 53.9562C36.4199 53.9825 36.4199 54.0076 36.4199 54.0231C36.4199 54.102 36.7116 54.096 36.7211 54.0279C36.7211 54.0183 36.7211 53.9861 36.7151 53.9394V53.9406Z" fill="#004739"/>
<path d="M39.5744 55.3664C39.5685 55.5062 39.4489 55.4859 39.3342 55.4859H38.2681C38.0338 55.4859 38.0231 55.4763 38.0231 55.2421V52.0927C38.0231 51.8381 38.029 51.8274 38.2836 51.8274C38.3876 51.8274 38.4605 51.8274 38.5131 51.8322C38.6589 51.8429 38.6374 51.9577 38.6374 52.1549V54.476C38.6374 54.5799 38.6434 54.6481 38.6434 54.6839C38.6637 54.9074 38.727 54.8608 39.174 54.8716C39.5123 54.8716 39.5697 54.8453 39.5756 54.9959C39.5804 55.1214 39.5804 55.2409 39.5756 55.3664H39.5744Z" fill="#004739"/>
<path d="M41.7646 54.8256C41.6236 55.5547 40.6662 55.8463 40.1308 55.1172C40.0531 55.018 40.022 54.883 40.022 54.7109L40.0172 52.6503C40.0065 52.3324 40.2252 51.9894 40.5634 51.8651C40.6304 51.8388 40.6877 51.8281 40.7403 51.8281C40.8909 51.8233 41.0009 51.8281 41.0678 51.8281C41.1144 51.8328 41.167 51.8376 41.2088 51.8543C41.3331 51.901 41.4849 52.0217 41.6558 52.2237C41.8124 52.4113 41.7861 52.8177 41.7813 52.9731C41.7754 53.0985 41.7395 53.1296 41.614 53.1296C41.5052 53.1344 41.4013 53.1344 41.2913 53.1296C41.1455 53.1189 41.1718 53.0974 41.167 52.7699C41.1563 52.5727 41.026 52.4364 40.8802 52.4364C40.8073 52.4364 40.7451 52.4687 40.6925 52.5249C40.5885 52.6396 40.5993 52.7591 40.5993 52.8894C40.5933 53.493 40.5933 53.9938 40.5993 54.3989C40.5993 54.4718 40.5993 54.5388 40.61 54.6009C40.6256 54.7312 40.7033 54.877 40.8646 54.8866C41.026 54.8973 41.161 54.7467 41.1658 54.5543V54.2686C41.1766 54.1539 41.2017 54.1181 41.3116 54.1181C41.4216 54.1121 41.5411 54.1121 41.6606 54.1181C41.7335 54.1228 41.7754 54.1647 41.7754 54.2376C41.7909 54.5292 41.7861 54.7216 41.7646 54.8256Z" fill="#004739"/>
<path d="M43.9828 54.9086C43.978 54.9564 43.9565 54.9971 43.9302 55.0449C43.519 55.7046 42.6561 55.664 42.3226 55.0389C42.2605 54.9242 42.2342 54.7891 42.2342 54.623V52.6712C42.2234 52.364 42.3693 52.1047 42.6716 51.886C42.7338 51.8382 42.7912 51.8131 42.8593 51.8023C43.2704 51.7402 43.531 51.7975 43.7497 52.0043C43.9684 52.2075 44.0366 52.5039 44.0366 52.78L44.0413 54.5023C44.0413 54.5596 44.0258 54.6947 43.984 54.9086H43.9828ZM43.384 54.519V52.7597C43.384 52.6867 43.3732 52.6294 43.3577 52.578C43.274 52.3234 42.8892 52.3533 42.8533 52.6198C42.8485 52.6509 42.8485 52.7035 42.8485 52.7871V54.4831C42.8485 54.5859 42.8533 54.6648 42.8748 54.7066C42.9585 54.9206 43.2597 54.9254 43.3541 54.7162C43.3744 54.6696 43.3852 54.6015 43.3852 54.519H43.384Z" fill="#004739"/>
<path d="M46.2038 54.9084C46.1991 54.9562 46.1775 54.9969 46.1513 55.0447C45.7401 55.7044 44.8772 55.6638 44.5437 55.0387C44.4816 54.9239 44.4553 54.7889 44.4553 54.6228V52.671C44.4445 52.3638 44.5903 52.1045 44.8927 51.8857C44.9549 51.8379 45.0122 51.8128 45.0804 51.8021C45.4915 51.7399 45.7521 51.7973 45.9708 52.0041C46.1895 52.2073 46.2576 52.5037 46.2576 52.7798L46.2624 54.502C46.2624 54.5594 46.2469 54.6945 46.205 54.9084H46.2038ZM45.3242 50.7766C45.2668 50.8029 45.2513 50.8435 45.1999 50.9905C45.1796 51.0635 45.0851 51.3288 45.0648 51.3802C45.0493 51.4268 45.0385 51.4686 45.029 51.5057C45.029 51.5427 45.0553 51.5786 45.1067 51.5846C45.2059 51.6049 45.262 51.6049 45.3768 51.5893C45.4652 51.5738 45.5333 51.4698 45.5584 51.4387C45.6517 51.2929 45.7616 51.0635 45.8501 50.9236C45.8656 50.8973 45.8871 50.8615 45.8967 50.8244C45.9074 50.7933 45.8704 50.7575 45.8285 50.7575C45.8178 50.7527 45.7353 50.7479 45.5943 50.7419C45.4329 50.7419 45.3708 50.7479 45.3242 50.779V50.7766ZM45.605 54.5176V52.7582C45.605 52.6853 45.5943 52.628 45.5788 52.5766C45.4951 52.322 45.1102 52.3519 45.0744 52.6184C45.0696 52.6495 45.0696 52.7021 45.0696 52.7857V54.4817C45.0696 54.5845 45.0744 54.6634 45.0959 54.7052C45.1796 54.9192 45.4807 54.9239 45.5752 54.7148C45.5955 54.6682 45.6062 54.6 45.6062 54.5176H45.605Z" fill="#004739"/>
<path d="M48.2701 55.3664C48.2641 55.5062 48.1446 55.4859 48.0299 55.4859H46.9638C46.7295 55.4859 46.7188 55.4763 46.7188 55.2421V52.0927C46.7188 51.8381 46.7247 51.8274 46.9793 51.8274C47.0833 51.8274 47.1562 51.8274 47.2088 51.8322C47.3546 51.8429 47.3331 51.9577 47.3331 52.1549V54.476C47.3331 54.5799 47.3391 54.6481 47.3391 54.6839C47.3594 54.9074 47.4227 54.8608 47.8697 54.8716C48.208 54.8716 48.2653 54.8453 48.2713 54.9959C48.2761 55.1214 48.2761 55.2409 48.2713 55.3664H48.2701Z" fill="#004739"/>
<path d="M49.0625 55.4863C48.9633 55.4863 48.8904 55.4863 48.839 55.4815C48.698 55.472 48.7147 55.3405 48.7147 55.1959V52.0943C48.7147 51.97 48.7255 51.8924 48.7458 51.8708C48.7972 51.8195 49.1103 51.829 49.2083 51.8338C49.3494 51.8493 49.3279 51.9641 49.3279 52.141V55.221C49.3279 55.4815 49.3171 55.4863 49.0625 55.4863Z" fill="#004739"/>
<path d="M51.5396 54.8256C51.3986 55.5547 50.4412 55.8463 49.9058 55.1172C49.8281 55.018 49.797 54.883 49.797 54.7109L49.7922 52.6503C49.7815 52.3324 50.0002 51.9894 50.3385 51.8651C50.4054 51.8388 50.4628 51.8281 50.5153 51.8281C50.6659 51.8233 50.7759 51.8281 50.8428 51.8281C50.8894 51.8328 50.942 51.8376 50.9839 51.8543C51.1082 51.901 51.26 52.0217 51.4309 52.2237C51.5874 52.4113 51.5611 52.8177 51.5564 52.9731C51.5504 53.0985 51.5145 53.1296 51.389 53.1296C51.2803 53.1344 51.1763 53.1344 51.0663 53.1296C50.9205 53.1189 50.9468 53.0974 50.942 52.7699C50.9313 52.5727 50.801 52.4364 50.6552 52.4364C50.5823 52.4364 50.5201 52.4687 50.4675 52.5249C50.3636 52.6396 50.3743 52.7591 50.3743 52.8894C50.3683 53.493 50.3683 53.9938 50.3743 54.3989C50.3743 54.4718 50.3743 54.5388 50.3851 54.6009C50.4006 54.7312 50.4783 54.877 50.6396 54.8866C50.801 54.8973 50.9361 54.7467 50.9408 54.5543V54.2686C50.9516 54.1539 50.9767 54.1181 51.0867 54.1181C51.1966 54.1121 51.3161 54.1121 51.4356 54.1181C51.5086 54.1228 51.5504 54.1647 51.5504 54.2376C51.5659 54.5292 51.5611 54.7216 51.5396 54.8256Z" fill="#004739"/>
<path d="M53.97 55.455C53.9234 55.5016 53.5541 55.486 53.5122 55.486C53.4608 55.4813 53.4298 55.4705 53.4083 55.4502C53.3616 55.4083 53.3557 55.3307 53.3354 55.1633C53.3246 55.0856 53.3198 55.0235 53.3091 54.9817C53.3043 54.9291 53.2935 54.6805 53.1119 54.6745C53.0856 54.6697 53.07 54.6697 53.07 54.6697C52.7999 54.6697 52.7581 54.6805 52.727 54.9458C52.7222 54.9876 52.6959 55.1287 52.6541 55.3677C52.6386 55.4454 52.5967 55.4824 52.5238 55.4824C52.3625 55.4872 52.2274 55.4872 52.1186 55.4824C51.9728 55.4777 52.0087 55.3677 52.0302 55.2171C52.1557 54.5096 52.525 52.3331 52.5716 52.0474C52.6027 51.8753 52.6445 51.8455 52.8107 51.8455H53.284C53.3365 51.8502 53.3772 51.861 53.3987 51.8765C53.4346 51.9136 53.4561 52.0068 53.4716 52.0905C53.6174 52.9546 53.9867 55.1346 53.9927 55.1765C54.019 55.3271 54.013 55.4203 53.9724 55.4573L53.97 55.455ZM53.168 53.9406C53.1573 53.8474 53.1011 53.5713 53.1011 53.5558C53.0963 53.5355 53.0856 53.5092 53.07 53.4781C53.0389 53.4207 52.9816 53.441 52.9613 53.4781C52.9254 53.5761 52.8943 53.7387 52.8776 53.9562C52.8728 53.9825 52.8728 54.0076 52.8728 54.0231C52.8728 54.102 53.1644 54.096 53.174 54.0279C53.174 54.0183 53.174 53.9861 53.168 53.9394V53.9406Z" fill="#004739"/>
<path d="M58.1607 55.4861C58.0257 55.5017 57.8906 55.5017 57.7496 55.4861C57.6456 55.4766 57.6564 55.3559 57.6564 55.2256V54.5491C57.6564 54.4236 57.636 54.3244 57.6038 54.2479C57.599 54.2324 57.5882 54.2276 57.5727 54.2276C57.5572 54.2276 57.5464 54.2324 57.5357 54.2431C57.5153 54.2694 57.4938 54.322 57.4783 54.3997L57.3695 54.9411C57.3325 55.118 57.3014 55.2483 57.2811 55.3415C57.2655 55.3989 57.2452 55.4407 57.2237 55.461C57.1819 55.4981 57.0205 55.5029 56.8747 55.4921C56.7707 55.4873 56.7397 55.461 56.7181 55.3618C56.6871 55.2268 56.6094 54.8993 56.5879 54.8252C56.5353 54.5861 56.4887 54.3997 56.4576 54.2634C56.4468 54.2324 56.4313 54.1905 56.405 54.1332C56.3847 54.0913 56.3321 54.1129 56.3273 54.1332C56.3118 54.1654 56.301 54.2276 56.301 54.316V55.2005C56.301 55.3463 56.3118 55.4718 56.1815 55.4909C56.0572 55.5017 55.9269 55.5017 55.7966 55.4909C55.6723 55.4754 55.6879 55.3666 55.6879 55.1945V52.1396C55.6879 51.9878 55.6723 51.8575 55.8026 51.8527H56.4373C56.4946 51.8527 56.5365 51.8898 56.552 51.9567L56.6249 52.3165L56.8962 53.685C56.901 53.7113 56.9165 53.7579 56.9381 53.8212C56.9584 53.8834 57.0313 53.8941 57.0683 53.8105C57.0731 53.8009 57.0791 53.7901 57.0791 53.7686L57.2034 53.0922C57.256 52.8161 57.2966 52.5866 57.3337 52.4216C57.3444 52.3643 57.354 52.2914 57.3755 52.1969C57.4173 51.9627 57.4018 51.8539 57.5572 51.8539C57.7914 51.8491 57.9886 51.8491 58.15 51.8539C58.291 51.8587 58.2695 51.9842 58.2695 52.1348V55.1897C58.2695 55.3355 58.2803 55.4718 58.1607 55.4861Z" fill="#004739"/>
<path d="M59.0815 55.4863C58.9822 55.4863 58.9093 55.4863 58.8579 55.4815C58.7169 55.472 58.7336 55.3405 58.7336 55.1959V52.0943C58.7336 51.97 58.7444 51.8924 58.7647 51.8708C58.8161 51.8195 59.1293 51.829 59.2273 51.8338C59.3683 51.8493 59.3468 51.9641 59.3468 52.141V55.221C59.3468 55.4815 59.336 55.4863 59.0815 55.4863Z" fill="#004739"/>
<path d="M61.5645 54.7731C61.5441 54.9404 61.4712 55.091 61.3565 55.2261C61.1222 55.5021 61.023 55.4651 60.6693 55.4866C60.4709 55.4974 60.2999 55.4555 60.1541 55.3671C60.0657 55.3097 59.9976 55.2524 59.9557 55.189C59.8314 54.9966 59.7585 54.8149 59.7322 54.6428C59.7227 54.5639 59.7059 54.4348 59.8159 54.4193C59.988 54.393 60.1075 54.3775 60.1649 54.3775C60.2689 54.3715 60.3059 54.4038 60.337 54.5125C60.337 54.5221 60.3477 54.5436 60.3525 54.5795C60.3681 54.6416 60.3788 54.6727 60.4051 54.7253C60.4888 54.8711 60.5928 54.9273 60.7218 54.8974C60.8473 54.8651 60.9513 54.7301 60.9513 54.5902C60.9561 54.283 60.8473 54.2364 60.576 53.9603L60.1075 53.4978C59.8577 53.2265 59.743 52.9098 59.7693 52.5608C59.8003 52.1544 60.0549 51.864 60.3884 51.7803C61.1533 51.5879 61.4963 52.0982 61.5489 52.5345C61.5585 52.5966 61.5334 52.6277 61.4808 52.6492C61.3398 52.6958 61.2047 52.7221 61.0804 52.7221C61.0183 52.7221 60.9764 52.6958 60.9549 52.6385L60.9023 52.5022C60.778 52.2273 60.4601 52.2835 60.4242 52.5751C60.3979 52.7723 60.4601 52.96 60.6167 53.1369C60.7159 53.2671 61.121 53.5946 61.2513 53.7452C61.5166 54.0464 61.6158 54.3906 61.5633 54.7707L61.5645 54.7731Z" fill="#004739"/>
<path d="M63.7233 52.312C63.7233 52.3586 63.7125 52.3897 63.697 52.41C63.6552 52.4471 63.5823 52.4471 63.489 52.4471C63.385 52.4471 63.2763 52.4423 63.2129 52.5032C63.1508 52.5606 63.1556 52.6491 63.1556 52.8522V55.1673C63.1556 55.355 63.1711 55.4745 63.0468 55.4853C62.9118 55.49 62.7815 55.49 62.6572 55.4853C62.5221 55.4805 62.5424 55.355 62.5424 55.1996V52.8008C62.5424 52.624 62.5424 52.557 62.4958 52.5044C62.4432 52.4483 62.3392 52.4483 62.2353 52.4483C62.1779 52.4483 62.1361 52.4483 62.1157 52.4435C62.0118 52.4375 61.9747 52.4112 61.9699 52.3072C61.964 52.1985 61.964 52.0789 61.9699 51.9582C61.9699 51.9164 61.9855 51.8853 62.001 51.8698C62.0428 51.8327 62.105 51.8435 62.2245 51.8435H63.4735C63.7185 51.8435 63.7281 51.8435 63.7281 52.0873C63.7281 52.1913 63.7281 52.2702 63.7221 52.312H63.7233Z" fill="#004739"/>
<path d="M65.7242 55.455C65.6775 55.5016 65.3082 55.486 65.2664 55.486C65.215 55.4813 65.1839 55.4705 65.1624 55.4502C65.1158 55.4083 65.1098 55.3307 65.0895 55.1633C65.0787 55.0856 65.074 55.0235 65.0632 54.9817C65.0584 54.9291 65.0477 54.6805 64.866 54.6745C64.8397 54.6697 64.8242 54.6697 64.8242 54.6697C64.5541 54.6697 64.5122 54.6805 64.4811 54.9458C64.4764 54.9876 64.4501 55.1287 64.4082 55.3677C64.3927 55.4454 64.3509 55.4824 64.278 55.4824C64.1166 55.4872 63.9816 55.4872 63.8728 55.4824C63.727 55.4777 63.7628 55.3677 63.7843 55.2171C63.9098 54.5096 64.2792 52.3331 64.3258 52.0474C64.3569 51.8753 64.3987 51.8455 64.5648 51.8455H65.0381C65.0907 51.8502 65.1313 51.861 65.1529 51.8765C65.1887 51.9136 65.2102 52.0068 65.2258 52.0905C65.3716 52.9546 65.7409 55.1346 65.7469 55.1765C65.7732 55.3271 65.7672 55.4203 65.7265 55.4573L65.7242 55.455ZM64.9222 53.9406C64.9114 53.8474 64.8552 53.5713 64.8552 53.5558C64.8505 53.5355 64.8397 53.5092 64.8242 53.4781C64.7931 53.4207 64.7357 53.441 64.7154 53.4781C64.6795 53.5761 64.6485 53.7387 64.6317 53.9562C64.627 53.9825 64.627 54.0076 64.627 54.0231C64.627 54.102 64.9186 54.096 64.9282 54.0279C64.9282 54.0183 64.9282 53.9861 64.9222 53.9394V53.9406Z" fill="#004739"/>
<path d="M69.2894 52.6703C69.2847 52.7073 69.2847 52.7587 69.2847 52.8316C69.2847 52.9822 69.3157 53.1125 69.1592 53.122C69.0397 53.128 68.9201 53.128 68.7946 53.122C68.6536 53.1125 68.6906 53.122 68.6751 52.7575C68.6703 52.5854 68.5448 52.4145 68.3632 52.4408C68.1815 52.4671 68.1134 52.6643 68.1134 52.9141V54.371C68.1134 54.481 68.1241 54.579 68.1552 54.6674C68.2329 54.922 68.5138 54.934 68.6393 54.7045C68.644 54.689 68.65 54.6722 68.6548 54.6674C68.6918 54.4655 68.6918 54.2718 68.65 54.0842C68.6393 54.022 68.5926 53.985 68.5197 53.9754C68.4361 53.9659 68.3942 53.9133 68.3942 53.82C68.3942 53.6372 68.3942 53.5284 68.399 53.4973C68.405 53.4185 68.4456 53.3778 68.5293 53.3718C68.5759 53.3671 68.6907 53.3671 68.8723 53.3671C69.0134 53.3671 69.1066 53.3671 69.1532 53.3718C69.1998 53.3718 69.2309 53.3874 69.2464 53.4029C69.2883 53.4448 69.2882 53.5021 69.2882 53.6372C69.2882 54.7619 69.3875 54.9854 68.9715 55.3236C68.5604 55.6607 67.8528 55.5674 67.5815 54.9435C67.5552 54.8814 67.5457 54.7882 67.5457 54.6627L67.5397 52.6595C67.5397 52.2699 67.8528 51.8217 68.3261 51.8265H68.5138C68.7528 51.8312 68.956 51.9352 69.1173 52.1444C69.2428 52.3117 69.299 52.4826 69.2894 52.6691V52.6703Z" fill="#004739"/>
<path d="M71.818 55.455C71.7714 55.5016 71.4021 55.486 71.3603 55.486C71.3089 55.4813 71.2778 55.4705 71.2563 55.4502C71.2097 55.4083 71.2037 55.3307 71.1834 55.1633C71.1726 55.0856 71.1678 55.0235 71.1571 54.9817C71.1523 54.9291 71.1415 54.6805 70.9599 54.6745C70.9336 54.6697 70.918 54.6697 70.918 54.6697C70.6479 54.6697 70.6061 54.6805 70.575 54.9458C70.5702 54.9876 70.5439 55.1287 70.5021 55.3677C70.4866 55.4454 70.4447 55.4824 70.3718 55.4824C70.2105 55.4872 70.0754 55.4872 69.9667 55.4824C69.8208 55.4777 69.8567 55.3677 69.8782 55.2171C70.0037 54.5096 70.373 52.3331 70.4196 52.0474C70.4507 51.8753 70.4926 51.8455 70.6587 51.8455H71.132C71.1846 51.8502 71.2252 51.861 71.2467 51.8765C71.2826 51.9136 71.3041 52.0068 71.3196 52.0905C71.4654 52.9546 71.8348 55.1346 71.8407 55.1765C71.867 55.3271 71.8611 55.4203 71.8204 55.4573L71.818 55.455ZM71.016 53.9406C71.0053 53.8474 70.9491 53.5713 70.9491 53.5558C70.9443 53.5355 70.9336 53.5092 70.918 53.4781C70.887 53.4207 70.8296 53.441 70.8093 53.4781C70.7734 53.5761 70.7424 53.7387 70.7256 53.9562C70.7208 53.9825 70.7208 54.0076 70.7208 54.0231C70.7208 54.102 71.0125 54.096 71.022 54.0279C71.022 54.0183 71.022 53.9861 71.016 53.9394V53.9406Z" fill="#004739"/>
<path d="M74.0807 54.7731C74.0604 54.9404 73.9875 55.091 73.8727 55.2261C73.6385 55.5021 73.5393 55.4651 73.1855 55.4866C72.9871 55.4974 72.8162 55.4555 72.6704 55.3671C72.5819 55.3097 72.5138 55.2524 72.472 55.189C72.3477 54.9966 72.2747 54.8149 72.2485 54.6428C72.2389 54.5639 72.2222 54.4348 72.3321 54.4193C72.5042 54.393 72.6237 54.3775 72.6811 54.3775C72.7851 54.3715 72.8221 54.4038 72.8532 54.5125C72.8532 54.5221 72.864 54.5436 72.8688 54.5795C72.8843 54.6416 72.8951 54.6727 72.9214 54.7253C73.005 54.8711 73.109 54.9273 73.2381 54.8974C73.3636 54.8651 73.4676 54.7301 73.4676 54.5902C73.4723 54.283 73.3636 54.2364 73.0923 53.9603L72.6237 53.4978C72.374 53.2265 72.2592 52.9098 72.2855 52.5608C72.3166 52.1544 72.5712 51.864 72.9046 51.7803C73.6695 51.5879 74.0126 52.0982 74.0652 52.5345C74.0747 52.5966 74.0496 52.6277 73.997 52.6492C73.856 52.6958 73.7209 52.7221 73.5966 52.7221C73.5345 52.7221 73.4927 52.6958 73.4711 52.6385L73.4186 52.5022C73.2943 52.2273 72.9763 52.2835 72.9405 52.5751C72.9142 52.7723 72.9763 52.96 73.1329 53.1369C73.2321 53.2671 73.6373 53.5946 73.7675 53.7452C74.0329 54.0464 74.1321 54.3906 74.0795 54.7707L74.0807 54.7731Z" fill="#004739"/>
<path d="M76.1177 55.3715C76.1069 55.497 75.9826 55.4863 75.8727 55.4863H74.7432C74.6703 55.4863 74.5819 55.4863 74.5353 55.4444C74.4886 55.4026 74.4934 55.3357 74.4934 55.1432V52.1146C74.4934 51.854 74.4994 51.8445 74.754 51.8445H75.8775C75.997 51.8445 76.0651 51.86 76.0914 51.8803C76.138 51.9281 76.1332 52.1875 76.1225 52.307C76.1117 52.4325 76.003 52.4218 75.8524 52.4218H75.3372C75.1651 52.4265 75.1185 52.4779 75.1089 52.6405C75.103 52.8174 75.103 52.9895 75.1137 53.1556C75.1137 53.2225 75.134 53.2751 75.1603 53.3062C75.2225 53.3624 75.3372 53.3576 75.4986 53.3576C75.5822 53.3576 75.6444 53.3576 75.6803 53.3624C75.8046 53.3624 75.8356 53.3994 75.8416 53.5237C75.8464 53.6325 75.8464 53.7425 75.8356 53.8512C75.8356 53.9241 75.7938 53.96 75.7209 53.966C75.642 53.9707 75.5225 53.9707 75.3719 53.9707C75.1747 53.9707 75.1221 53.997 75.1113 54.2205C75.1006 54.346 75.1006 54.4871 75.1066 54.6472C75.1173 54.8145 75.1639 54.8659 75.3348 54.8719H75.8452C76.0018 54.8767 76.1057 54.8612 76.1213 54.9807C76.132 55.1157 76.132 55.246 76.1165 55.3703L76.1177 55.3715Z" fill="#004739"/>
<path d="M76.9602 55.4863C76.861 55.4863 76.7881 55.4863 76.7367 55.4815C76.5957 55.472 76.6124 55.3405 76.6124 55.1959V52.0943C76.6124 51.97 76.6232 51.8924 76.6435 51.8708C76.6949 51.8195 77.008 51.829 77.106 51.8338C77.2471 51.8493 77.2256 51.9641 77.2256 52.141V55.221C77.2256 55.4815 77.2148 55.4863 76.9602 55.4863Z" fill="#004739"/>
<path d="M79.2809 52.2961C79.2702 52.4216 79.1614 52.4049 79.0311 52.4049H78.8076L78.5841 52.4097C78.4491 52.4097 78.2829 52.3834 78.2722 52.5866C78.2662 52.6392 78.2662 52.785 78.2614 53.018C78.2614 53.0909 78.2662 53.1495 78.2722 53.1854C78.2985 53.3778 78.4025 53.3467 78.7347 53.3527C78.9953 53.3527 79.0001 53.3622 79.0048 53.618C79.0048 53.826 79.0252 53.9563 78.8805 53.961C78.8913 53.961 78.7921 53.967 78.5937 53.967C78.5005 53.9718 78.4371 53.9718 78.4061 53.9766C78.2913 53.9861 78.2602 54.1021 78.2602 54.3196V55.1993C78.2602 55.3897 78.1646 55.4849 77.9734 55.4849C77.6877 55.4849 77.6818 55.4849 77.6818 55.204V52.1443C77.6818 52.0559 77.6818 51.9985 77.6877 51.977C77.6925 51.8623 77.7236 51.8312 77.8383 51.8312C77.8802 51.8264 77.9997 51.8264 78.2136 51.8264H79.0981C79.2594 51.836 79.2857 51.8575 79.2857 52.0236C79.2917 52.1228 79.2917 52.2113 79.2809 52.2949V52.2961Z" fill="#004739"/>
<path d="M80.0783 55.4863C79.9791 55.4863 79.9062 55.4863 79.8548 55.4815C79.7137 55.472 79.7305 55.3405 79.7305 55.1959V52.0943C79.7305 51.97 79.7412 51.8924 79.7615 51.8708C79.8129 51.8195 80.1261 51.829 80.2241 51.8338C80.3651 51.8493 80.3436 51.9641 80.3436 52.141V55.221C80.3436 55.4815 80.3329 55.4863 80.0783 55.4863Z" fill="#004739"/>
<path d="M82.5549 54.8256C82.4139 55.5547 81.4565 55.8463 80.9211 55.1172C80.8434 55.018 80.8123 54.883 80.8123 54.7109L80.8075 52.6503C80.7968 52.3324 81.0155 51.9894 81.3537 51.8651C81.4206 51.8388 81.478 51.8281 81.5306 51.8281C81.6812 51.8233 81.7912 51.8281 81.8581 51.8281C81.9047 51.8328 81.9573 51.8376 81.9991 51.8543C82.1234 51.901 82.2752 52.0217 82.4461 52.2237C82.6027 52.4113 82.5764 52.8177 82.5716 52.9731C82.5656 53.0985 82.5298 53.1296 82.4043 53.1296C82.2955 53.1344 82.1916 53.1344 82.0816 53.1296C81.9358 53.1189 81.9621 53.0974 81.9573 52.7699C81.9465 52.5727 81.8163 52.4364 81.6704 52.4364C81.5975 52.4364 81.5354 52.4687 81.4828 52.5249C81.3788 52.6396 81.3896 52.7591 81.3896 52.8894C81.3836 53.493 81.3836 53.9938 81.3896 54.3989C81.3896 54.4718 81.3896 54.5388 81.4003 54.6009C81.4159 54.7312 81.4936 54.877 81.6549 54.8866C81.8163 54.8973 81.9513 54.7467 81.9561 54.5543V54.2686C81.9668 54.1539 81.992 54.1181 82.1019 54.1181C82.2119 54.1121 82.3314 54.1121 82.4509 54.1181C82.5238 54.1228 82.5656 54.1647 82.5656 54.2376C82.5812 54.5292 82.5764 54.7216 82.5549 54.8256Z" fill="#004739"/>
<path d="M84.9854 55.455C84.9388 55.5016 84.5695 55.486 84.5276 55.486C84.4762 55.4813 84.4452 55.4705 84.4236 55.4502C84.377 55.4083 84.3711 55.3307 84.3507 55.1633C84.34 55.0856 84.3352 55.0235 84.3244 54.9817C84.3197 54.9291 84.3089 54.6805 84.1272 54.6745C84.1009 54.6697 84.0854 54.6697 84.0854 54.6697C83.8153 54.6697 83.7734 54.6805 83.7424 54.9458C83.7376 54.9876 83.7113 55.1287 83.6695 55.3677C83.6539 55.4454 83.6121 55.4824 83.5392 55.4824C83.3778 55.4872 83.2428 55.4872 83.134 55.4824C82.9882 55.4777 83.0241 55.3677 83.0456 55.2171C83.1711 54.5096 83.5404 52.3331 83.587 52.0474C83.6181 51.8753 83.6599 51.8455 83.826 51.8455H84.2993C84.3519 51.8502 84.3926 51.861 84.4141 51.8765C84.4499 51.9136 84.4714 52.0068 84.487 52.0905C84.6328 52.9546 85.0021 55.1346 85.0081 55.1765C85.0344 55.3271 85.0284 55.4203 84.9878 55.4573L84.9854 55.455ZM84.1834 53.9406C84.1726 53.8474 84.1165 53.5713 84.1165 53.5558C84.1117 53.5355 84.1009 53.5092 84.0854 53.4781C84.0543 53.4207 83.997 53.441 83.9766 53.4781C83.9408 53.5761 83.9097 53.7387 83.893 53.9562C83.8882 53.9825 83.8882 54.0076 83.8882 54.0231C83.8882 54.102 84.1798 54.096 84.1894 54.0279C84.1894 54.0183 84.1894 53.9861 84.1834 53.9394V53.9406Z" fill="#004739"/>
<path d="M87.2602 52.6861V54.5961C87.2602 54.7837 87.2136 54.9451 87.1252 55.0849C86.7977 55.5737 86.5993 55.4853 85.6575 55.4853H85.6372C85.5846 55.4853 85.5487 55.4698 85.5332 55.4542C85.4913 55.4124 85.4913 55.3502 85.4913 55.1626V52.1244C85.4913 52.0455 85.4973 51.9834 85.4973 51.9415C85.5128 51.8172 85.6276 51.8268 85.7256 51.8268C86.2096 51.822 86.4547 51.822 86.4642 51.822C86.6519 51.822 86.8132 51.8842 86.9423 52.0192C87.1969 52.2798 87.2602 52.4507 87.2602 52.685V52.6861ZM86.6411 52.7172C86.6256 52.5451 86.5324 52.4567 86.365 52.4471C86.1666 52.4316 86.1045 52.4782 86.1104 52.6706V54.5805C86.1104 54.706 86.1045 54.81 86.2037 54.8518C86.4009 54.9248 86.6459 54.7897 86.6459 54.5853V52.8583C86.6459 52.7913 86.6459 52.7435 86.6399 52.7172H86.6411Z" fill="#004739"/>
<path d="M89.67 55.455C89.6233 55.5016 89.254 55.486 89.2122 55.486C89.1608 55.4813 89.1297 55.4705 89.1082 55.4502C89.0616 55.4083 89.0556 55.3307 89.0353 55.1633C89.0245 55.0856 89.0198 55.0235 89.009 54.9817C89.0042 54.9291 88.9935 54.6805 88.8118 54.6745C88.7855 54.6697 88.77 54.6697 88.77 54.6697C88.4999 54.6697 88.458 54.6805 88.4269 54.9458C88.4222 54.9876 88.3959 55.1287 88.354 55.3677C88.3385 55.4454 88.2967 55.4824 88.2238 55.4824C88.0624 55.4872 87.9274 55.4872 87.8186 55.4824C87.6728 55.4777 87.7086 55.3677 87.7301 55.2171C87.8556 54.5096 88.225 52.3331 88.2716 52.0474C88.3026 51.8753 88.3445 51.8455 88.5106 51.8455H88.9839C89.0365 51.8502 89.0771 51.861 89.0986 51.8765C89.1345 51.9136 89.156 52.0068 89.1716 52.0905C89.3174 52.9546 89.6867 55.1346 89.6927 55.1765C89.719 55.3271 89.713 55.4203 89.6723 55.4573L89.67 55.455ZM88.868 53.9406C88.8572 53.8474 88.801 53.5713 88.801 53.5558C88.7963 53.5355 88.7855 53.5092 88.77 53.4781C88.7389 53.4207 88.6815 53.441 88.6612 53.4781C88.6254 53.5761 88.5943 53.7387 88.5775 53.9562C88.5728 53.9825 88.5728 54.0076 88.5728 54.0231C88.5728 54.102 88.8644 54.096 88.874 54.0279C88.874 54.0183 88.874 53.9861 88.868 53.9394V53.9406Z" fill="#004739"/>
</svg>
