<svg width="94" height="87" viewBox="0 0 94 87" fill="none" xmlns="http://www.w3.org/2000/svg">
<path d="M0.147217 45.5208V81.5369L93.5396 36.0161V0L0.147217 45.5208Z" fill="#FFD600"/>
<path d="M50.6146 35.0909C50.0328 34.7319 49.3837 34.7319 48.691 35.063C47.6244 35.5897 46.6679 36.6251 46.0032 38.0203C45.2982 39.4567 44.9235 41.1691 44.9235 42.9522C44.9235 44.8585 45.5603 46.3368 46.6679 47.0278C47.0977 47.2908 47.5685 47.4297 48.0394 47.4297C48.442 47.4297 48.8422 47.3319 49.23 47.1388C51.1273 46.2127 51.9433 43.5052 51.9433 43.4781L51.1684 43.2702C51.1553 43.2981 50.1865 45.4263 49.0509 45.9793C48.691 46.1577 48.3713 46.1577 48.1092 45.9925C47.4724 45.6055 47.1256 44.1839 47.1256 41.9045V41.8766L52.3328 39.3203C52.3328 37.4698 51.6261 35.7294 50.6146 35.0918V35.0909ZM47.1684 40.6596C47.2645 39.3868 47.5003 38.2545 47.8454 37.3851C48.1503 36.639 48.525 36.1148 48.912 35.934C49.078 35.851 49.244 35.851 49.3952 35.9488C49.9087 36.2528 50.2259 37.5232 50.2259 39.1658L47.1675 40.6596H47.1684ZM43.6506 37.8124L42.1551 46.654L40.4789 39.3597L38.9152 40.1206L37.4197 48.9621L35.7434 41.6547L33.9291 42.5389L36.3523 53.1479L38.0688 52.3065L39.4953 43.852L41.0861 50.8405L42.8043 49.9991L44.9637 37.1781L43.6474 37.8133L43.6506 37.8124ZM32.906 43.6983C32.3802 43.3671 31.6751 43.3671 30.9808 43.7131C29.9841 44.1954 29.473 44.9415 29.2643 45.3154V38.8346L27.0917 39.8987V57.6516L29.2643 56.5875V47.9818C29.2643 47.2341 29.445 46.5307 29.7901 45.9079C30.0671 45.4107 30.3719 45.0788 30.6759 44.9407C30.8978 44.8306 31.0786 44.8175 31.2298 44.9128C31.6193 45.1486 31.6743 45.9769 31.6743 46.4321V55.4133L33.8469 54.3615V45.907C33.8469 44.8577 33.5149 44.0714 32.9052 43.6975L32.906 43.6983ZM25.6504 55.7182C25.6373 55.7313 24.6685 57.8727 23.5329 58.4257C23.173 58.604 22.8533 58.604 22.5912 58.4388C21.9544 58.0395 21.6076 56.6303 21.6076 54.3509C21.6076 53.1487 21.7457 51.9055 22.1064 50.7576C22.3981 49.8611 22.896 48.7132 23.878 48.3968C24.5846 48.1758 25.2773 48.465 25.8312 48.8939C25.8312 48.6729 25.8164 47.5677 25.8164 47.5677C25.8032 47.5677 25.5674 47.3467 25.1114 47.2341C24.6964 47.124 24.0316 47.0829 23.173 47.497C22.1212 48.0221 21.1516 49.0714 20.4852 50.4527C19.7801 51.8907 19.4054 53.6039 19.4054 55.3994C19.4054 57.2926 20.0423 58.784 21.1647 59.475C21.5797 59.738 22.0505 59.862 22.5213 59.862C22.924 59.862 23.3242 59.779 23.712 59.5859C25.6093 58.6599 26.4269 55.9392 26.4269 55.9121L25.6496 55.719L25.6504 55.7182ZM75.1786 23.1401C74.5968 22.781 73.96 22.7679 73.2681 23.1121C72.2016 23.6241 71.2451 24.6742 70.568 26.0547C69.8614 27.491 69.4883 29.2059 69.4883 31.0013C69.4883 32.8945 70.1251 34.3859 71.2451 35.077C71.6601 35.3383 72.1309 35.464 72.6017 35.464C73.0044 35.464 73.4062 35.381 73.794 35.1879C75.7045 34.2618 76.5073 31.5395 76.5204 31.5124V31.4993L75.7456 31.2914L75.7324 31.3193C75.7176 31.3341 74.7489 33.4755 73.6281 34.0285C73.2534 34.2068 72.9485 34.2068 72.6716 34.0416C72.0348 33.6423 71.7028 32.2331 71.7028 29.9537V29.9109L76.8951 27.3694V27.3546C76.8951 25.5041 76.1885 23.7761 75.1786 23.1409V23.1401ZM71.7439 28.694C71.8269 27.4236 72.0635 26.3036 72.4086 25.4343C72.7135 24.6734 73.103 24.1639 73.4752 23.97C73.5582 23.9421 73.6412 23.915 73.7119 23.915C73.808 23.915 73.891 23.9429 73.974 23.9979C74.4728 24.302 74.7916 25.5575 74.7916 27.2026L71.7439 28.694ZM81.2296 34.261C80.523 34.261 79.9009 34.8009 79.8861 35.5191C79.8861 36.2372 80.4827 36.8173 81.1877 36.8321C81.8796 36.8321 82.4893 36.28 82.5041 35.547C82.5172 34.8288 81.9075 34.2766 81.2305 34.2618L81.2296 34.261ZM81.2017 36.6111C80.6051 36.5963 80.1499 36.1271 80.1499 35.5191C80.1631 34.9241 80.6331 34.4549 81.2296 34.4697C81.7835 34.4697 82.2543 34.9521 82.2395 35.547C82.2395 36.1551 81.7563 36.6111 81.2025 36.6111H81.2017ZM81.7958 35.2002C81.7958 34.9241 81.6167 34.8009 81.2847 34.8009H80.7161V36.252H80.9379L80.9248 35.6292H81.1869L81.5747 36.252H81.8385L81.4236 35.6168C81.6454 35.5889 81.7966 35.464 81.7966 35.2002H81.7958ZM80.9371 35.4492V34.9792H81.242C81.4079 34.9792 81.5616 35.0219 81.5616 35.2002C81.5616 35.4213 81.4088 35.4492 81.2296 35.4492H80.9379H80.9371ZM58.8111 31.0145C58.2852 30.6833 57.6763 30.6833 57.0247 31.0145C56.3599 31.3333 55.6829 32.1895 55.2252 33.3095V32.1772L53.0937 33.1994V50.6614L55.2252 49.6244V41.7919C55.5719 42.4682 56.0148 42.9095 56.5136 43.0754C56.9417 43.2135 57.3862 43.1732 57.8423 42.9522C58.7149 42.5233 59.4356 41.5988 59.9187 40.2726C60.3764 39.0828 60.6254 37.5914 60.6254 36.0721C60.6254 35.008 60.4594 33.9299 60.1677 33.0465C59.8358 32.0671 59.3797 31.3612 58.8111 31.0153V31.0145ZM57.0518 41.764C56.8176 41.9021 56.553 41.9423 56.3189 41.7919C55.6541 41.3778 55.2243 39.7056 55.2243 37.5232C55.2243 36.5413 55.2671 35.5199 55.4733 34.5527C55.6114 33.8896 56.2359 31.9964 57.3024 32.6595C58.0502 33.1287 58.4651 35.243 58.4651 36.971C58.4651 37.9382 58.3822 38.9176 58.1603 39.8585C58.0346 40.3277 57.8965 40.8256 57.6344 41.2398C57.5087 41.4329 57.3024 41.6391 57.051 41.7648L57.0518 41.764ZM13.1334 46.7361C13.1334 45.7008 13.7842 44.7616 14.7809 44.4584C15.9165 44.1124 17.1343 44.4156 18.0759 45.1067L18.062 43.3663C17.1893 43.0072 16.2764 42.8544 15.4317 42.9374C14.518 43.0204 13.6732 43.3663 12.9395 43.9612C12.0947 44.6646 11.1531 45.8676 11.1531 48.1881C11.1531 51.0484 12.9666 52.9137 14.518 54.6812C15.7776 56.1175 16.9132 57.5966 16.9132 59.171C16.9132 60.6073 16.1244 61.8653 14.8639 62.1546C14.0331 62.3477 12.7316 62.2647 11.2919 61.1603L11.3059 63.2614C11.7767 63.5786 12.7184 63.8826 13.7981 63.8826C14.7258 63.8826 15.7365 63.6756 16.6782 63.0535C17.744 62.3206 19.0176 60.8711 19.0176 58.0937C19.0176 55.4823 17.3709 53.5341 15.7784 51.6425C14.4218 50.0254 13.1342 48.4913 13.1342 46.7361H13.1334ZM67.1317 26.9668C66.5926 26.6356 65.9837 26.6356 65.3321 26.9668C64.6674 27.2856 64.0034 28.1418 63.5326 29.2618V28.1147L61.4134 29.1517V46.6137L63.5326 45.5767V37.7442C63.8794 38.4073 64.3223 38.8494 64.821 39.0277C65.2491 39.1658 65.692 39.1255 66.1497 38.9045C67.0207 38.4755 67.743 37.5511 68.241 36.2249C68.6839 35.0351 68.9328 33.5305 68.9328 32.0243C68.9328 30.9471 68.7668 29.883 68.4751 28.9988C68.158 28.0194 67.6871 27.3135 67.1317 26.9676V26.9668ZM65.374 37.7163C65.1382 37.8543 64.8613 37.8946 64.6263 37.7442C63.9615 37.3301 63.5318 35.6579 63.5318 33.4755C63.5318 32.4935 63.5745 31.4722 63.7807 30.505C63.9188 29.8419 64.5433 27.9364 65.6082 28.6118C66.356 29.0687 66.7709 31.1952 66.7709 32.9233C66.7709 33.8904 66.6879 34.8699 66.4661 35.8108C66.342 36.2808 66.2171 36.7779 65.9402 37.192C65.8161 37.3851 65.6082 37.5914 65.3732 37.7171L65.374 37.7163ZM82.5016 28.86C82.5016 25.5855 78.6528 24.5362 78.6528 22.4918C78.6528 21.8286 79.0957 21.2214 79.7456 21.0406C80.4523 20.8475 81.2001 21.0686 81.8221 21.3997V20.2822C81.8221 20.2822 80.4244 19.5213 78.7916 20.4055C78.0718 20.8475 77.1564 21.5936 77.1564 23.2379C77.1564 26.5954 80.9363 27.0226 80.9363 29.6061C80.8401 31.3883 78.5147 31.3744 77.2666 30.9044L77.2813 32.2174C79.7177 33.0186 82.6799 31.3744 82.4868 28.6389" fill="#000006"/>
<path d="M17.4927 72.7775V85.7243L76.196 57.078V44.1321L17.4927 72.7775Z" fill="#000006"/>
<path d="M17.1897 86.2084V72.5886L17.3598 72.5056L76.4987 43.6482V57.2679L76.3286 57.3509L17.1897 86.2092V86.2084ZM17.7945 72.9666V85.2404L75.8931 56.89V44.617L17.7945 72.9666Z" fill="#FFD600"/>
<path d="M24.1784 73.9065C24.8284 73.5893 25.4036 73.7914 25.6468 74.291C25.964 74.941 25.646 75.7142 24.9648 76.0462C24.8144 76.1193 24.6607 76.1752 24.4898 76.2072L24.4077 76.1316C24.475 76.1243 24.5506 76.0947 24.6492 76.0462C25.2105 75.7726 25.3962 75.0963 25.102 74.4932C24.9196 74.1193 24.5252 73.9056 24.042 74.1415L23.7092 74.3042L24.4874 77.5483C24.5745 77.8983 24.6657 78.047 25.1603 77.8063L25.1907 77.9205L23.5892 78.7019L23.5597 78.5877C23.9393 78.4028 24.0395 78.1604 23.9631 77.8055L23.3025 75.0511C23.2261 74.6961 23.0305 74.5983 22.6352 74.7906L22.6106 74.6739L24.1809 73.9081L24.1784 73.9065Z" fill="#FFD600"/>
<path d="M28.7549 75.3826C28.5117 75.16 28.2069 74.8264 27.9004 74.699C27.7434 74.6275 27.5881 74.6135 27.4377 74.6867L27.2093 74.7984L27.5199 76.0696C27.607 76.4196 27.6982 76.5684 28.1871 76.3301L28.2167 76.4443L26.6201 77.2224L26.5897 77.1082C26.9694 76.9233 27.0704 76.6809 26.9932 76.326L26.3325 73.5716C26.2454 73.2216 26.0606 73.1189 25.6653 73.3111L25.6357 73.1969L27.2266 72.4212C27.9439 72.0712 28.5314 72.2996 28.7311 72.7746C28.9735 73.3769 28.4879 74.0449 27.7492 74.4574C28.4386 74.3399 29.1231 74.9389 29.5191 75.2224C29.7582 75.3958 29.9801 75.4804 30.1822 75.3818C30.271 75.3391 30.354 75.2725 30.372 75.2438L30.363 75.3703C30.2923 75.45 30.1461 75.5725 29.8815 75.7015C29.3145 75.9776 29.0696 75.6727 28.7541 75.3826H28.7549ZM27.1764 74.6398L27.4205 74.5207C27.9612 74.2569 28.4279 73.63 28.1625 73.0194C28.0105 72.6431 27.584 72.413 27.0277 72.685L26.7368 72.8271L27.1773 74.6398H27.1764Z" fill="#FFD600"/>
<path d="M33.3383 73.9456L30.2446 75.4542L30.2142 75.34C30.5938 75.1551 30.6941 74.9127 30.6177 74.5577L29.957 71.8034C29.8806 71.4484 29.685 71.3506 29.2898 71.5429L29.2651 71.4262L32.0836 70.0515L32.3145 71.0269L32.2052 71.0803C31.9447 70.4928 31.6267 70.4353 31.169 70.6588L30.3629 71.0515L30.7804 72.7788L31.2175 72.5659C31.5141 72.4213 31.6694 72.1592 31.5988 71.6588L31.7081 71.6054L32.0433 73.045L31.934 73.0984C31.7319 72.5791 31.5511 72.5643 31.2602 72.7064L30.8132 72.9242L31.1436 74.3014C31.22 74.6563 31.4139 74.7229 31.8091 74.5306L32.2307 74.3252C32.9686 73.9653 33.0655 73.3712 33.1214 72.7064L33.2307 72.653L33.34 73.9456H33.3383Z" fill="#FFD600"/>
<path d="M34.815 73.2248L33.5463 73.8436L33.5159 73.7294C33.8956 73.5445 33.9498 73.2988 33.9301 72.9414L33.7419 69.9561C33.7172 69.5888 33.4748 69.5009 33.23 69.62L33.2053 69.5033L34.2349 69.0013C34.3491 69.2355 34.5661 69.5477 34.8003 69.9224L35.972 71.7967L36.5283 67.8821L37.631 67.3447L37.6557 67.4614C37.2654 67.652 37.1495 67.8887 37.2415 68.2494L37.9392 70.9857C38.0263 71.3357 38.2062 71.4409 38.6015 71.2486L38.6319 71.3629L37.0254 72.1468L36.995 72.0325C37.3903 71.8394 37.4963 71.5946 37.4092 71.2445L36.6368 68.2223L35.9901 72.6505L35.8701 72.7088L33.8594 69.5765L34.1371 72.8649C34.17 73.2224 34.3836 73.3045 34.7838 73.1098L34.8142 73.224L34.815 73.2248Z" fill="#FFD600"/>
<path d="M38.635 67.5698C38.5586 67.2148 38.363 67.117 37.9678 67.3093L37.9431 67.1926L39.5553 66.4062L39.58 66.5229C39.1847 66.716 39.0845 66.9576 39.1609 67.3134L39.8215 70.0678C39.8979 70.4227 40.0935 70.5205 40.4888 70.3282L40.5192 70.4425L38.9226 71.2206L38.8922 71.1064C39.2718 70.9215 39.3721 70.6791 39.2956 70.3241L38.635 67.5698Z" fill="#FFD600"/>
<path d="M43.2635 65.3122C43.1715 64.9647 42.9907 64.8595 42.5963 65.0518L42.5659 64.9375L43.8239 64.3237L43.8535 64.4379C43.4582 64.631 43.3424 64.8808 43.4344 65.2284L43.9488 67.3657C44.1279 68.0896 43.9052 68.8604 42.9849 69.3098C41.7524 69.9105 41.0876 69.3789 40.8995 68.5703L40.45 66.6845C40.3579 66.3369 40.1772 66.2317 39.7828 66.424L39.7532 66.3098L41.3654 65.5234L41.3958 65.6376C41.0005 65.8307 40.8838 66.0805 40.9767 66.4281L41.4541 68.4092C41.5856 68.9951 41.994 69.5818 42.9767 69.1019C43.5174 68.8382 43.9833 68.2893 43.7565 67.3764L43.2643 65.3122H43.2635Z" fill="#FFD600"/>
<path d="M46.0001 67.7694L44.7314 68.3882L44.701 68.274C45.0806 68.0891 45.1348 67.8434 45.1151 67.4859L44.927 64.5007C44.9023 64.1334 44.6599 64.0455 44.415 64.1646L44.3904 64.0479L45.42 63.5459C45.5342 63.7801 45.7511 64.0923 45.9853 64.4678L47.1571 66.3421L47.7134 62.4275L48.8161 61.8901L48.8407 62.0068C48.4504 62.1975 48.3346 62.4341 48.4266 62.7948L49.1242 65.5311C49.2113 65.8812 49.3913 65.9863 49.7865 65.7941L49.8169 65.9083L48.2105 66.6922L48.1801 66.578C48.5753 66.3849 48.6813 66.14 48.5942 65.7899L47.8218 62.7685L47.1751 67.1967L47.0552 67.255L45.0445 64.1227L45.3222 67.4112C45.3551 67.7686 45.5687 67.8508 45.9689 67.656L45.9985 67.7703L46.0001 67.7694Z" fill="#FFD600"/>
<path d="M51.3254 65.1719L51.295 65.0577C51.6746 64.8728 51.7757 64.6304 51.6985 64.2754L51.0378 61.5211C50.9614 61.1661 50.7658 61.0683 50.3706 61.2606L50.3459 61.1439L52.0362 60.3198C53.1332 59.7848 54.0699 60.0806 54.5136 60.9911C55.1118 62.2179 54.6122 63.5688 53.2918 64.213L51.3262 65.1719H51.3254ZM53.1751 64.1086C53.9762 63.7183 54.4076 62.9928 54.0962 61.7216C54.0338 61.4751 53.9508 61.2647 53.8595 61.0774C53.507 60.3551 52.9047 60.0568 51.9688 60.5129L51.4437 60.7692L52.2137 63.9977C52.3082 64.3897 52.4676 64.4529 52.8628 64.2606L53.1751 64.1086Z" fill="#FFD600"/>
<path d="M57.5579 61.3334C57.3147 61.1107 57.0098 60.7771 56.7033 60.6497C56.5464 60.5782 56.3911 60.5643 56.2407 60.6374L56.0123 60.7492L56.3229 62.0195C56.41 62.3696 56.5012 62.5183 56.9901 62.28L57.0197 62.3942L55.4231 63.1724L55.3935 63.0581C55.7732 62.8733 55.8734 62.6309 55.797 62.2759L55.1363 59.5215C55.0492 59.1715 54.8635 59.0688 54.4683 59.2611L54.4387 59.1468L56.0295 58.3711C56.7469 58.0211 57.3344 58.2495 57.5341 58.7253C57.7765 59.3276 57.2917 59.9957 56.5521 60.4081C57.2416 60.2906 57.926 60.8897 58.3221 61.1732C58.5612 61.3465 58.7831 61.4312 58.9852 61.3326C59.0731 61.2898 59.1569 61.2233 59.175 61.1945L59.166 61.3211C59.0953 61.4008 58.9491 61.5232 58.6845 61.6522C58.1175 61.9283 57.8726 61.6235 57.5571 61.3334H57.5579ZM55.9794 60.5906L56.2235 60.4714C56.7641 60.2077 57.2309 59.5807 56.9655 58.9702C56.8134 58.5938 56.387 58.3638 55.8307 58.6357L55.5398 58.7779L55.9802 60.5906H55.9794Z" fill="#FFD600"/>
<path d="M58.7608 57.7546C58.6844 57.3996 58.488 57.3018 58.0928 57.4941L58.0681 57.3774L59.6803 56.5911L59.7049 56.7077C59.3097 56.9008 59.2095 57.1424 59.2859 57.4982L59.9465 60.2526C60.0229 60.6076 60.2185 60.7053 60.6138 60.5131L60.6433 60.6273L59.0468 61.4054L59.0172 61.2912C59.3968 61.1063 59.4971 60.8639 59.4206 60.5089L58.76 57.7546H58.7608Z" fill="#FFD600"/>
<path d="M62.2463 59.8455L60.962 60.4717L60.9316 60.3575C61.3112 60.1726 61.3663 59.8234 61.2792 59.4733L60.6736 56.8208C60.5971 56.4659 60.4016 56.3681 60.0063 56.5604L59.9817 56.4437L60.9176 55.9876L63.8988 58.0353L63.2636 55.5579C63.1872 55.2029 62.9965 55.1027 62.6013 55.2949L62.5717 55.1807L63.8667 54.5488L63.8914 54.6655C63.4961 54.8586 63.3959 55.1002 63.4723 55.456L64.2743 58.8562L64.1444 58.9195L60.8264 56.682L61.5092 59.3615C61.5939 59.7067 61.7599 59.954 62.2167 59.7305L62.2463 59.8447V59.8455Z" fill="#FFD600"/>
<path d="M66.6813 57.6819L65.0847 58.46L65.0543 58.3458C65.4339 58.1609 65.5342 57.9185 65.4578 57.5635L64.7971 54.8092C64.7207 54.4542 64.5251 54.3564 64.1299 54.5487L64.1052 54.432L65.7174 53.6456L65.7421 53.7623C65.3468 53.9546 65.2458 54.197 65.323 54.5528L65.6985 56.114L66.5925 54.1724C66.6509 54.0409 66.8538 53.6136 66.7963 53.455C66.7511 53.3482 66.6164 53.3367 66.2836 53.4994L66.2589 53.3827L67.6575 52.7007L67.6821 52.8174C67.4274 52.9414 67.0773 53.5824 66.9344 53.8576L66.3772 55.0245L67.6369 56.0771C68.245 56.5849 68.3715 56.6588 68.7733 56.5331L68.8037 56.6473L67.337 57.3622L67.3074 57.248L67.4578 57.1749C67.7906 57.0122 67.5441 56.7977 67.2597 56.5701L66.1028 55.5964L65.7544 56.3326L65.9853 57.308C66.0617 57.663 66.2581 57.7607 66.6525 57.5685L66.6821 57.6827L66.6813 57.6819Z" fill="#FFD600"/>
<path d="M70.2975 55.9892C69.7987 56.2324 69.4676 56.1626 69.1718 56.3064C69.0937 56.3442 69.0239 56.3853 68.9581 56.4617L68.6516 55.2398L68.7609 55.1864C69.0658 56.0229 69.7018 56.1116 70.2367 55.8503C70.7823 55.5841 70.9351 55.0525 70.7199 54.6104C70.5547 54.2727 70.2663 54.1815 69.8809 54.17L69.286 54.1511C68.8595 54.1338 68.4799 54.0163 68.2876 53.6211C68.0033 53.0385 68.2408 52.3376 69.0469 51.944C69.6032 51.6728 70.0765 51.6925 70.2663 51.6194L70.4479 52.5989L70.3386 52.6523C70.2014 52.1206 69.8538 51.7237 69.12 52.0812C68.6681 52.3022 68.5021 52.7813 68.6927 53.1716C68.8217 53.437 69.0354 53.5446 69.318 53.5553L69.9154 53.5791C70.3912 53.6046 70.8669 53.6556 71.1126 54.1601C71.4249 54.7994 71.1241 55.5833 70.2975 55.9867V55.9892Z" fill="#FFD600"/>
</svg>
