<svg width="269" height="682" viewBox="0 0 269 682" fill="none" xmlns="http://www.w3.org/2000/svg">
<g clip-path="url(#clip0_1_1046)">
<path d="M269.129 274.157V411.235H134.564C134.564 335.532 194.814 274.157 269.129 274.157Z" fill="#F74A50"/>
<path d="M269.142 411.235H261.116V681.146H269.142V411.235Z" fill="#F74A50"/>
<path d="M295.539 414.758L226.962 675.472L234.715 677.588L303.292 416.874L295.539 414.758Z" fill="#F74A50"/>
<path d="M327.891 427.274L195.41 661.024L202.361 665.111L334.841 431.362L327.891 427.274Z" fill="#F74A50"/>
<path d="M355.981 447.847L168.626 638.703L174.301 644.484L361.656 453.628L355.981 447.847Z" fill="#F74A50"/>
<path d="M377.86 475.161L148.397 610.116L152.41 617.197L381.873 482.241L377.86 475.161Z" fill="#F74A50"/>
<path d="M392.071 507.308L136.138 577.166L138.217 585.071L394.15 515.213L392.071 507.308Z" fill="#F74A50"/>
<path d="M397.618 542.103H132.657V550.278H397.618V542.103Z" fill="#F74A50"/>
<path d="M138.207 507.312L136.128 515.217L392.06 585.075L394.14 577.17L138.207 507.312Z" fill="#F74A50"/>
<path d="M152.401 475.175L148.388 482.255L377.851 617.211L381.864 610.13L152.401 475.175Z" fill="#F74A50"/>
<path d="M174.287 447.87L168.612 453.651L355.967 644.506L361.642 638.725L174.287 447.87Z" fill="#F74A50"/>
<path d="M202.362 427.277L195.411 431.365L327.892 665.114L334.842 661.026L202.362 427.277Z" fill="#F74A50"/>
<path d="M234.715 414.773L226.962 416.889L295.539 677.602L303.291 675.486L234.715 414.773Z" fill="#F74A50"/>
<path d="M269.129 137.078C231.967 137.095 201.843 167.774 201.843 205.622C239.004 205.605 269.129 174.926 269.129 137.078Z" fill="white"/>
<path d="M134.564 137.078C134.581 174.934 164.697 205.622 201.851 205.622C201.834 167.766 171.718 137.078 134.564 137.078Z" fill="white"/>
<path d="M134.564 274.157C171.726 274.14 201.851 243.461 201.851 205.613C164.689 205.63 134.564 236.309 134.564 274.157Z" fill="white"/>
<path d="M201.851 205.622C201.867 243.477 231.984 274.165 269.137 274.165C269.121 236.309 239.004 205.622 201.851 205.622Z" fill="white"/>
<path d="M262.88 36.1378C260.485 30.9427 257.257 26.2638 253.293 22.226C249.33 18.1881 244.737 14.8996 239.637 12.4602C229.878 7.78132 218.151 9.90431 210.46 17.7386L169.833 59.1243L164.938 64.7273C161.889 69.3396 160.5 74.9676 161.162 80.4707C162.347 90.353 166.066 98.5452 172.228 104.823C178.39 111.1 186.424 114.888 196.125 116.095C201.527 116.77 207.06 115.354 211.588 112.241L217.088 107.254L257.715 65.8679C265.405 58.0337 267.49 46.0867 262.896 36.1461L262.88 36.1378ZM196.002 75.5254C197.375 74.1267 199.598 74.1267 200.971 75.5254C202.344 76.9241 202.344 79.1886 200.971 80.5873C199.598 81.986 197.375 81.986 196.002 80.5873C194.629 79.1886 194.629 76.9241 196.002 75.5254ZM206.643 93.9496L205.417 92.7008C203.407 90.6527 203.456 87.3475 205.483 85.3161C205.532 85.2662 205.581 85.2162 205.63 85.1663C209.471 81.1617 209.308 74.4181 205.287 70.6051C201.266 66.792 195.242 66.9918 191.434 70.8715C191.417 70.8881 191.409 70.8965 191.393 70.9131C189.382 72.9861 186.138 73.0611 184.119 71.0047L182.893 69.7559C180.932 67.7578 180.891 64.5109 182.828 62.4878C182.893 62.4212 182.951 62.3546 183.016 62.2963C191.736 53.413 206.039 53.6129 214.514 62.8791C222.147 71.2295 222.302 84.3088 214.873 92.8423C214.506 93.2586 214.13 93.6582 213.745 94.0412C211.768 95.9977 208.597 95.9394 206.643 93.9496ZM226.765 60.3232L215.903 49.2587C210.362 43.614 210.362 34.4394 215.903 28.7947C221.444 23.1501 230.451 23.1501 235.992 28.7947L246.853 39.8592C252.394 45.5039 252.394 54.6785 246.853 60.3232C241.312 65.9678 232.306 65.9678 226.765 60.3232Z" fill="white"/>
</g>
<defs>
<clipPath id="clip0_1_1046">
<rect width="520" height="681.146" fill="white"/>
</clipPath>
</defs>
</svg>
