<svg width="260" height="640" viewBox="0 0 260 640" fill="none" xmlns="http://www.w3.org/2000/svg">
<path d="M129.925 384.496C94.0056 384.512 64.8876 413.103 64.8876 448.374C100.807 448.358 129.925 419.767 129.925 384.496Z" fill="white"/>
<path d="M-0.14209 384.496C-0.126291 419.775 28.9838 448.374 64.8954 448.374C64.8796 413.095 35.7696 384.496 -0.14209 384.496Z" fill="white"/>
<path d="M-0.14209 512.244C35.7775 512.229 64.8954 483.638 64.8954 448.366C28.9759 448.382 -0.14209 476.973 -0.14209 512.244Z" fill="white"/>
<path d="M64.8954 448.374C64.9112 483.653 94.0213 512.252 129.933 512.252C129.917 476.973 100.807 448.374 64.8954 448.374Z" fill="white"/>
<path d="M7.00907 129H-0.874756V384.496H7.00907V129Z" fill="#F74A50"/>
<path d="M32.9177 132.354L-34.41 379.144L-26.7949 381.148L40.5328 134.358L32.9177 132.354Z" fill="#F74A50"/>
<path d="M64.6878 144.183L-65.3794 365.449L-58.5518 369.321L71.5153 148.055L64.6878 144.183Z" fill="#F74A50"/>
<path d="M92.2457 163.669L-91.697 344.332L-86.1223 349.807L97.8204 169.144L92.2457 163.669Z" fill="#F74A50"/>
<path d="M113.734 189.514L-111.549 317.262L-107.607 323.968L117.676 196.22L113.734 189.514Z" fill="#F74A50"/>
<path d="M127.679 219.934L-123.592 286.062L-121.551 293.541L129.719 227.414L127.679 219.934Z" fill="#F74A50"/>
<path d="M133.134 252.876H-127V260.62H133.134V252.876Z" fill="#F74A50"/>
<path d="M-121.546 219.948L-123.586 227.427L127.684 293.554L129.725 286.075L-121.546 219.948Z" fill="#F74A50"/>
<path d="M-107.603 189.525L-111.544 196.231L113.738 323.979L117.68 317.273L-107.603 189.525Z" fill="#F74A50"/>
<path d="M-86.1145 163.685L-91.6892 169.16L92.2535 349.823L97.8282 344.348L-86.1145 163.685Z" fill="#F74A50"/>
<path d="M-58.5564 144.18L-65.384 148.052L64.6831 369.318L71.5107 365.446L-58.5564 144.18Z" fill="#F74A50"/>
<path d="M-26.785 132.346L-34.4001 134.35L32.9275 381.141L40.5427 379.137L-26.785 132.346Z" fill="#F74A50"/>
<path d="M-0.14209 512.244H129.925V639.992C58.0938 639.992 -0.14209 582.795 -0.14209 512.244Z" fill="#F74A50"/>
<path d="M110.344 27.2892C107.745 21.8658 104.253 16.9778 99.9559 12.7648C95.6585 8.55181 90.6896 5.11468 85.1678 2.5698C74.5981 -2.31822 61.9034 -0.0992125 53.5693 8.08628L9.57639 51.2948L4.26784 57.145C0.965806 61.9631 -0.543014 67.8365 0.17585 73.5858C1.45559 83.9127 5.49229 92.4629 12.1596 99.0112C18.8268 105.56 27.5322 109.524 38.0466 110.781C43.9002 111.487 49.8881 110.005 54.7938 106.754L60.7501 101.541L104.743 58.332C113.077 50.1465 115.329 37.6782 110.352 27.297L110.344 27.2892ZM37.9123 68.4184C39.3974 66.9598 41.8068 66.9598 43.2919 68.4184C44.7771 69.8771 44.7771 72.2435 43.2919 73.7022C41.8068 75.1608 39.3974 75.1608 37.9123 73.7022C36.4272 72.2435 36.4272 69.8771 37.9123 68.4107V68.4184ZM49.4378 87.6524L48.1107 86.3489C45.9304 84.2075 45.9857 80.7549 48.1818 78.6367C48.2371 78.5902 48.2845 78.5359 48.3398 78.4816C52.5029 74.2996 52.3291 67.2546 47.9685 63.2744C43.7343 59.4105 37.0907 59.5036 32.9671 63.5459C32.9513 63.5615 32.9356 63.577 32.9198 63.5925C30.7474 65.7494 27.2241 65.8348 25.0438 63.6856L23.7167 62.3821C21.5917 60.295 21.5443 56.9122 23.6456 54.794C23.7167 54.7242 23.7799 54.6621 23.851 54.5923C33.291 45.3206 48.7901 45.5223 57.9694 55.2053C66.2324 63.9261 66.4062 77.5815 58.3565 86.4886C57.9615 86.9231 57.5586 87.3421 57.14 87.7455C54.9992 89.7938 51.5628 89.724 49.4457 87.6524H49.4378ZM71.225 52.5362L59.4624 40.9834C53.4587 35.0868 53.4666 25.5047 59.4624 19.608C65.4583 13.7191 75.2222 13.7114 81.218 19.608L92.9805 31.1609C98.9842 37.0575 98.9763 46.6396 92.9805 52.5285C86.9768 58.4251 77.2208 58.4251 71.2171 52.5285L71.225 52.5362Z" fill="#F74A50"/>
</svg>
